<?xml version="1.0" standalone="no"?>
<!DOCTYPE svg PUBLIC "-//W3C//DTD SVG 1.1//EN" "http://www.w3.org/Graphics/SVG/1.1/DTD/svg11.dtd" >
<svg xmlns="http://www.w3.org/2000/svg">
<metadata>
Generated by SVGconv.
Copyright   : Copyright  2011 ParaType Inc., ParaType Ltd. All rights reserved.
Designer    : A.Korolkova
Foundry     : ParaType Ltd
Foundry URL : http://www.paratype.com
</metadata>
<defs>
<font id="CirceWeb-Bold" horiz-adv-x="721" >
<font-face units-per-em="1000" ascent="1020" descent="454" />
<missing-glyph horiz-adv-x="500" />
<glyph unicode="&#13;" horiz-adv-x="212" />
<glyph unicode="&#32;" horiz-adv-x="212" />
<glyph unicode="&#33;" horiz-adv-x="310" d="M94 700h122v-458h-122zM78 75q0 13 5.5 26.5q5.5 13.5 16 24q10.5 10.5 25 17q14.5 6.5 33.5 6.5q16 0 29.5 -6.5q13.5 -6.5 23 -17q9.5 -10.5 15 -24q5.5 -13.5 5.5 -26.5q0 -15 -5.5 -29.5q-5.5 -14.5 -15 -26q-9.5 -11.5 -23 -18q-13.5 -6.5 -29.5 -6.5q-38 0 -59 24.5t-21 55.5z" />
<glyph unicode="&#34;" horiz-adv-x="432" d="M249 700h115v-241h-115zM67 700h115v-241l-115 0z" />
<glyph unicode="&#35;" horiz-adv-x="724" d="M372 180h-153l-71 -191l-89 31l59 160h-78v100h115l52 140h-167v100h205l71 191l89 -32l-59 -159h151l71 191l89 -31l-59 -160h86v-100h-123l-52 -140h175v-100h-212l-70 -191l-89 32zM256 280h153l51 140l-152 0z" />
<glyph unicode="&#36;" horiz-adv-x="596" d="M398 186q0 34 -23.5 56.5q-23.5 22.5 -58.5 40.5q-35 18 -76.5 35.5q-41.5 17.5 -76.5 43q-35 25.5 -58.5 62.5q-23.5 37 -23.5 94q0 33 11.5 63q11.5 30 33 55q21.5 25 52 43q30.5 18 68.5 26l0 85h115v-83q95 -15 146 -71l-66 -92q-26 25 -54 38.5q-28 13.5 -70 13.5q-54 0 -80 -21q-26 -21 -26 -56q0 -36 23.5 -58.5q23.5 -22.5 58.5 -40q35 -17.5 76.5 -34.5q41.5 -17 76.5 -41.5q35 -24.5 58.5 -62q23.5 -37.5 23.5 -95.5q0 -38 -12 -69.5q-12 -31.5 -34 -56.5q-22 -25 -53 -42q-31 -17 -68 -24l0 -95h-115v94q-28 4 -54.5 13q-26.5 9 -49.5 22.5q-23 13.5 -41 31q-18 17.5 -28 38.5l70 84q31 -40 75.5 -59.5q44.5 -19.5 85.5 -19.5q44 0 69 21t25 61z" />
<glyph unicode="&#37;" horiz-adv-x="911" d="M675 711l65 -49l-504 -673l-66 46zM37 531q0 40 14.5 73q14.5 33 41 56.5q26.5 23.5 62.5 36q36 12.5 79 12.5q43 0 79 -12.5q36 -12.5 62 -36q26 -23.5 41 -56.5q15 -33 15 -73q0 -40 -15 -73q-15 -33 -41 -56.5q-26 -23.5 -62 -36.5q-36 -13 -79 -13q-43 0 -79 13q-36 13 -62.5 36.5q-26.5 23.5 -41 56.5q-14.5 33 -14.5 73zt0 0zM145 531q0 -40 26 -63q26 -23 63 -23q39 0 64.5 23q25.5 23 25.5 63q0 39 -26 62q-26 23 -64 23q-38 0 -63.5 -23q-25.5 -23 -25.5 -62zt0 0zM479 169q0 40 14.5 73q14.5 33 41 56.5q26.5 23.5 62.5 36q36 12.5 79 12.5q43 0 79 -12.5q36 -12.5 62 -36q26 -23.5 41 -56.5q15 -33 15 -73q0 -40 -15 -73q-15 -33 -41 -56.5q-26 -23.5 -62 -36.5q-36 -13 -79 -13q-43 0 -79 13q-36 13 -62.5 36.5q-26.5 23.5 -41 56.5q-14.5 33 -14.5 73zt0 0zM587 169q0 -40 26 -63q26 -23 63 -23q39 0 64.5 23q25.5 23 25.5 63q0 39 -26 62q-26 23 -64 23q-38 0 -63.5 -23t-25.5 -62z" />
<glyph unicode="&#38;" horiz-adv-x="753" d="M501 73q-15 -16 -34 -31q-19 -15 -44 -27q-25 -12 -56.5 -19q-31.5 -7 -71.5 -7q-53 0 -96.5 15q-43.5 15 -74.5 42q-31 27 -47.5 63.5q-16.5 36.5 -16.5 80.5q0 44 12.5 78q12.5 34 34 61.5q21.5 27.5 49.5 50.5q28 23 59 45q-36 17 -58 50.5q-22 33.5 -22 83.5q0 36 13.5 64q13.5 28 36.5 47.5q23 19.5 53 30q30 10.5 63 10.5q33 0 63 -10.5q30 -10.5 53 -30q23 -19.5 36.5 -47.5q13.5 -28 13.5 -64q0 -23 -7 -45q-7 -22 -19.5 -40q-12.5 -18 -29 -31q-16.5 -13 -34.5 -19l136 -177q18 35 32.5 85q14.5 50 14.5 118l114 0q0 -84 -24.5 -161q-24.5 -77 -67.5 -134l121 -155h-143zM299 104q47 0 79.5 16q32.5 16 53.5 45l-142 194q-51 -41 -75.5 -73.5q-24.5 -32.5 -24.5 -72.5q0 -23 8.5 -43q8.5 -20 23 -34.5q14.5 -14.5 34.5 -23q20 -8.5 43 -8.5zt0 0zM242 559q0 -23 16.5 -40.5q16.5 -17.5 42.5 -17.5q26 0 42.5 17.5q16.5 17.5 16.5 40.5q0 25 -17.5 42q-17.5 17 -41.5 17q-25 0 -42 -16.5t-17 -42.5z" />
<glyph unicode="&#39;" horiz-adv-x="250" d="M67 700h115v-241l-115 0z" />
<glyph unicode="&#40;" horiz-adv-x="315" d="M242 -206q-57 49 -95.5 102q-38.5 53 -62.5 107.5q-24 54.5 -34 110.5q-10 56 -10 111q0 55 10 110q10 55 34 109q24 54 63 107q39 53 96 105l71 -63q-82 -81 -120.5 -169.5q-38.5 -88.5 -38.5 -198.5q0 -55 12 -107q12 -52 33 -99.5q21 -47.5 50.5 -88q29.5 -40.5 64.5 -73.5z" />
<glyph unicode="&#41;" horiz-adv-x="315" d="M0 -143q35 33 64.5 73.5q29.5 40.5 50.5 88q21 47.5 33 99.5q12 52 12 107q0 110 -38.5 198.5q-38.5 88.5 -120.5 169.5l71 63q57 -52 96 -105q39 -53 63 -107q24 -54 34 -109q10 -55 10 -110q0 -55 -10 -111q-10 -56 -34 -110.5q-24 -54.5 -62.5 -107.5q-38.5 -53 -95.5 -102z" />
<glyph unicode="&#42;" horiz-adv-x="540" d="M199 638q0 29 21 50.5q21 21.5 52 21.5q29 0 50.5 -21.5q21.5 -21.5 21.5 -50.5q0 -31 -21.5 -52q-21.5 -21 -50.5 -21q-31 0 -52 21q-21 21 -21 52zt0 0zM197 332q0 30 21 52q21 22 51 22q29 0 50.5 -22q21.5 -22 21.5 -52q0 -29 -21.5 -50q-21.5 -21 -50.5 -21q-30 0 -51 21q-21 21 -21 50zt0 0zM339 568q0 29 22 51q22 22 51 22q30 0 51.5 -22q21.5 -22 21.5 -51q0 -30 -21.5 -51q-21.5 -21 -51.5 -21q-29 0 -51 21q-22 21 -22 51zt0 0zM339 405q0 30 22 52q22 22 51 22q30 0 51.5 -22q21.5 -22 21.5 -52q0 -29 -21.5 -50q-21.5 -21 -51.5 -21q-29 0 -51 21q-22 21 -22 50zt0 0zM55 405q0 30 21.5 52q21.5 22 50.5 22q31 0 52.5 -22q21.5 -22 21.5 -52q0 -29 -21.5 -50q-21.5 -21 -52.5 -21q-29 0 -50.5 21q-21.5 21 -21.5 50zt0 0zM55 568q0 29 21.5 51q21.5 22 50.5 22q31 0 52.5 -22q21.5 -22 21.5 -51q0 -30 -21.5 -51q-21.5 -21 -52.5 -21q-29 0 -50.5 21t-21.5 51z" />
<glyph unicode="&#43;" horiz-adv-x="596" d="M66 410h177v181h108v-181h179v-100h-179v-183h-108v183l-177 0z" />
<glyph unicode="&#44;" horiz-adv-x="252" d="M47 64q0 32 19.5 52.5q19.5 20.5 57.5 20.5q41 0 64.5 -31.5q23.5 -31.5 23.5 -80.5q0 -64 -33.5 -108.5q-33.5 -44.5 -93.5 -61.5l-31 54q19 7 34.5 18.5q15.5 11.5 26.5 34.5q7 14 9.5 26q2.5 12 -0.5 20q-5 -6 -12.5 -7q-7.5 -1 -13.5 -1q-20 0 -35.5 18t-15.5 46z" />
<glyph unicode="&#45;" horiz-adv-x="376" d="M62 327h252v-107l-252 0z" />
<glyph unicode="&#46;" horiz-adv-x="243" d="M45 75q0 13 5.5 26.5q5.5 13.5 16 24q10.5 10.5 25 17q14.5 6.5 33.5 6.5q16 0 29.5 -6.5q13.5 -6.5 23 -17q9.5 -10.5 15 -24q5.5 -13.5 5.5 -26.5q0 -15 -5.5 -29.5q-5.5 -14.5 -15 -26q-9.5 -11.5 -23 -18q-13.5 -6.5 -29.5 -6.5q-38 0 -59 24.5t-21 55.5z" />
<glyph unicode="&#47;" horiz-adv-x="359" d="M300 711l89 -33l-330 -886l-89 33z" />
<glyph unicode="&#48;" horiz-adv-x="554" d="M42 350q0 80 14 146q14 66 43 113q29 47 73.5 73q44.5 26 104.5 26q60 0 104 -26q44 -26 73 -73q29 -47 43 -113q14 -66 14 -146q0 -80 -14 -146q-14 -66 -42.5 -113q-28.5 -47 -72 -73q-43.5 -26 -103.5 -26q-60 0 -105 26q-45 26 -74 73q-29 47 -43.5 113q-14.5 66 -14.5 146zt0 0zM165 350q0 -129 28.5 -190q28.5 -61 85.5 -61q60 0 85 60.5q25 60.5 25 190.5q0 130 -26 190q-26 60 -86 60q-60 0 -86 -61t-26 -189z" />
<glyph unicode="&#49;" horiz-adv-x="389" d="M201 702h83v-702h-115v538l-86 -65l-61 95z" />
<glyph unicode="&#50;" horiz-adv-x="524" d="M37 92q43 42 93.5 92q50.5 50 94.5 104q44 54 73.5 108.5q29.5 54.5 29.5 105.5q0 42 -22.5 66.5q-22.5 24.5 -66.5 24.5q-38 0 -64 -24.5q-26 -24.5 -37 -69.5l-96 43q14 77 70 121.5q56 44.5 140 44.5q50 0 87 -15.5q37 -15.5 62 -41q25 -25.5 37 -58.5q12 -33 12 -68q0 -49 -15.5 -96q-15.5 -47 -40.5 -89.5q-25 -42.5 -55.5 -80q-30.5 -37.5 -59.5 -67.5q-29 -30 -54 -52q-25 -22 -39 -33l291 0v-107l-440 0z" />
<glyph unicode="&#51;" horiz-adv-x="530" d="M244 -11q-81 0 -137.5 32q-56.5 32 -84.5 86l65 84q26 -39 65 -63q39 -24 85 -24q57 0 85 28.5q28 28.5 28 68.5q0 48 -34.5 73.5q-34.5 25.5 -95.5 25.5h-50v115h45q21 0 40.5 6.5q19.5 6.5 34.5 19q15 12.5 24 30q9 17.5 9 40.5q0 38 -22 61.5q-22 23.5 -67 23.5q-42 0 -74 -18.5q-32 -18.5 -58 -56.5l-64 81q29 54 82 81.5q53 27.5 125 27.5q45 0 82 -12.5q37 -12.5 63.5 -35.5q26.5 -23 41 -56q14.5 -33 14.5 -74q0 -119 -107 -166l0 -3q33 -6 58 -21q25 -15 42 -37q17 -22 25.5 -50q8.5 -28 8.5 -59q0 -48 -17.5 -86.5q-17.5 -38.5 -48.5 -65.5q-31 -27 -73 -41.5t-90 -14.5z" />
<glyph unicode="&#52;" horiz-adv-x="565" d="M335 162h-320v85l270 453h132l-253 -423h171v173h115v-173h90v-115h-90v-162l-115 0z" />
<glyph unicode="&#53;" horiz-adv-x="514" d="M127 700h331v-115h-230l-20 -139q8 2 18.5 3q10.5 1 21.5 1q46 0 86.5 -15.5q40.5 -15.5 70 -44.5q29.5 -29 46.5 -70q17 -41 17 -93q0 -57 -19 -101q-19 -44 -51.5 -74.5q-32.5 -30.5 -76.5 -46.5q-44 -16 -94 -16q-28 0 -57.5 6.5q-29.5 6.5 -57 19q-27.5 12.5 -51 31q-23.5 18.5 -39.5 43.5l66 87q23 -33 62.5 -52.5q39.5 -19.5 79.5 -19.5q51 0 83 33q32 33 32 85q0 53 -39 88.5q-39 35.5 -110 35.5q-34 0 -66.5 -5.5q-32.5 -5.5 -48.5 -12.5z" />
<glyph unicode="&#54;" horiz-adv-x="559" d="M45 248q0 96 32 175q32 79 82.5 138.5q50.5 59.5 111.5 97.5q61 38 118 52l47 -87q-43 -13 -83 -35.5q-40 -22.5 -74 -54.5q-34 -32 -59.5 -73.5q-25.5 -41.5 -38.5 -92.5q22 30 56.5 47.5q34.5 17.5 87.5 17.5q40 0 75.5 -15.5q35.5 -15.5 62.5 -43.5q27 -28 42.5 -67.5q15.5 -39.5 15.5 -87.5q0 -55 -19.5 -98q-19.5 -43 -51.5 -72q-32 -29 -72.5 -44.5q-40.5 -15.5 -82.5 -15.5q-59 0 -105 20.5q-46 20.5 -78.5 56q-32.5 35.5 -49.5 82.5q-17 47 -17 100zt0 0zM167 247q0 -30 8.5 -56q8.5 -26 24.5 -45.5q16 -19.5 40 -30.5q24 -11 56 -11q24 0 43 9q19 9 32.5 23.5q13.5 14.5 20.5 34q7 19.5 7 40.5q0 48 -28.5 81.5q-28.5 33.5 -84.5 33.5q-24 0 -43 -7q-19 -7 -33.5 -18.5q-14.5 -11.5 -25 -25.5t-17.5 -28z" />
<glyph unicode="&#55;" horiz-adv-x="497" d="M25 700h440v-77l-248 -623h-126l236 585l-302 0z" />
<glyph unicode="&#56;" horiz-adv-x="600" d="M310 417q20 0 36.5 7.5q16.5 7.5 28.5 20q12 12.5 18.5 28.5q6.5 16 6.5 34q0 43 -28.5 66q-28.5 23 -73.5 23q-45 0 -72 -25q-27 -25 -27 -64q0 -18 6.5 -34q6.5 -16 18.5 -28.5q12 -12.5 29 -20q17 -7.5 38 -7.5zM293 302q-22 0 -42.5 -7q-20.5 -7 -36 -19.5q-15.5 -12.5 -25 -31q-9.5 -18.5 -9.5 -41.5q0 -42 31 -70.5q31 -28.5 88 -28.5q63 0 92.5 28.5q29.5 28.5 28.5 70.5q-1 49 -32.5 74q-31.5 25 -77.5 25zM300 -11q-51 0 -95.5 13.5q-44.5 13.5 -77 38q-32.5 24.5 -51.5 60q-19 35.5 -19 80.5q0 68 34.5 114q34.5 46 85.5 63l0 3q-41 17 -70.5 60.5q-29.5 43.5 -29.5 105.5q0 41 17.5 75q17.5 34 47.5 58q30 24 70.5 37.5q40.5 13.5 86.5 13.5q46 0 87 -13.5q41 -13.5 71.5 -37.5q30.5 -24 48 -58q17.5 -34 17.5 -75q0 -51 -28.5 -97q-28.5 -46 -79.5 -68l0 -3q26 -5 49 -19q23 -14 40.5 -36q17.5 -22 27.5 -50.5q10 -28.5 10 -62.5q0 -48 -18.5 -86q-18.5 -38 -51.5 -63.5q-33 -25.5 -77 -39t-95 -13.5z" />
<glyph unicode="&#57;" horiz-adv-x="555" d="M510 444q0 -101 -28 -181.5q-28 -80.5 -76.5 -138q-48.5 -57.5 -114 -92q-65.5 -34.5 -140.5 -43.5l-38 91q109 22 174.5 84q65.5 62 86.5 160q-22 -30 -55 -46.5q-33 -16.5 -78 -16.5q-44 0 -82.5 16.5q-38.5 16.5 -67 45.5q-28.5 29 -45 68.5q-16.5 39.5 -16.5 86.5q0 55 20.5 98.5q20.5 43.5 53.5 73.5q33 30 74.5 45.5q41.5 15.5 83.5 15.5q58 0 104.5 -20q46.5 -20 78 -55q31.5 -35 48.5 -84.5q17 -49.5 17 -107.5zt0 0zM388 445q0 30 -8 57.5q-8 27.5 -23.5 48q-15.5 20.5 -39.5 33q-24 12.5 -55 12.5q-24 0 -44.5 -9.5q-20.5 -9.5 -35 -24.5q-14.5 -15 -22.5 -35q-8 -20 -8 -41q0 -23 8 -44q8 -21 23 -37.5q15 -16.5 36.5 -26q21.5 -9.5 49.5 -9.5q47 0 76 23.5t43 52.5z" />
<glyph unicode="&#58;" horiz-adv-x="318" d="M82 387q0 13 5.5 26.5q5.5 13.5 16 24q10.5 10.5 25 17q14.5 6.5 33.5 6.5q16 0 29.5 -6.5q13.5 -6.5 23 -17q9.5 -10.5 15 -24q5.5 -13.5 5.5 -26.5q0 -15 -5.5 -29.5q-5.5 -14.5 -15 -26q-9.5 -11.5 -23 -18q-13.5 -6.5 -29.5 -6.5q-38 0 -59 24.5q-21 24.5 -21 55.5zt0 0zM82 75q0 13 5.5 26.5q5.5 13.5 16 24q10.5 10.5 25 17q14.5 6.5 33.5 6.5q16 0 29.5 -6.5q13.5 -6.5 23 -17q9.5 -10.5 15 -24q5.5 -13.5 5.5 -26.5q0 -15 -5.5 -29.5q-5.5 -14.5 -15 -26q-9.5 -11.5 -23 -18q-13.5 -6.5 -29.5 -6.5q-38 0 -59 24.5t-21 55.5z" />
<glyph unicode="&#59;" horiz-adv-x="324" d="M82 387q0 13 5.5 26.5q5.5 13.5 16 24q10.5 10.5 25 17q14.5 6.5 33.5 6.5q16 0 29.5 -6.5q13.5 -6.5 23 -17q9.5 -10.5 15 -24q5.5 -13.5 5.5 -26.5q0 -15 -5.5 -29.5q-5.5 -14.5 -15 -26q-9.5 -11.5 -23 -18q-13.5 -6.5 -29.5 -6.5q-38 0 -59 24.5q-21 24.5 -21 55.5zt0 0zM83 64q0 32 19.5 52.5q19.5 20.5 57.5 20.5q41 0 64.5 -31.5q23.5 -31.5 23.5 -80.5q0 -64 -33.5 -108.5q-33.5 -44.5 -93.5 -61.5l-31 54q19 7 34.5 18.5q15.5 11.5 26.5 34.5q7 14 9.5 26q2.5 12 -0.5 20q-5 -6 -12.5 -7q-7.5 -1 -13.5 -1q-20 0 -35.5 18t-15.5 46z" />
<glyph unicode="&#60;" horiz-adv-x="596" d="M49 337v49l464 269v-124l-306 -169l306 -171l0 -125z" />
<glyph unicode="&#61;" horiz-adv-x="596" d="M66 505h464v-100h-464zM66 315h464v-100l-464 0z" />
<glyph unicode="&#62;" horiz-adv-x="596" d="M82 66v125l307 171l-307 169v124l465 -269l0 -49z" />
<glyph unicode="&#63;" horiz-adv-x="473" d="M325 510q0 18 -7 33.5q-7 15.5 -19.5 27q-12.5 11.5 -30 18.5q-17.5 7 -37.5 7q-42 0 -70.5 -16q-28.5 -16 -52.5 -48l-68 77q27 44 78.5 73q51.5 29 119.5 29q50 0 89 -14q39 -14 66 -38q27 -24 41 -56q14 -32 14 -68q0 -49 -15 -83q-15 -34 -36.5 -58.5q-21.5 -24.5 -46.5 -43q-25 -18.5 -45.5 -37.5q-20.5 -19 -31.5 -41.5q-11 -22.5 -6 -53.5l-105 -1q-7 44 2 73.5q9 29.5 27 51q18 21.5 41.5 38.5q23.5 17 44 34.5q20.5 17.5 34.5 40q14 22.5 14 55.5zt0 0zM140 75q0 13 5.5 26.5q5.5 13.5 15.5 24q10 10.5 25 17q15 6.5 33 6.5q16 0 30 -6.5q14 -6.5 23.5 -17q9.5 -10.5 15 -24q5.5 -13.5 5.5 -26.5q0 -31 -20.5 -55.5q-20.5 -24.5 -53.5 -24.5q-37 0 -58 24.5t-21 55.5z" />
<glyph unicode="&#64;" horiz-adv-x="996" d="M599 36q-23 -21 -54.5 -34q-31.5 -13 -69.5 -13q-51 0 -91.5 17q-40.5 17 -69.5 48q-29 31 -44.5 74.5q-15.5 43.5 -15.5 96.5q0 49 19 92q19 43 53 75q34 32 81.5 50.5q47.5 18.5 104.5 18.5q58 0 112 -15.5q54 -15.5 90 -38.5l0 -300h20q42 0 69.5 44.5q27.5 44.5 27.5 121.5q0 58 -22.5 110q-22.5 52 -64 91q-41.5 39 -101.5 61.5q-60 22.5 -135 22.5q-71 0 -133 -23q-62 -23 -109 -66q-47 -43 -74 -104.5q-27 -61.5 -27 -139.5q0 -73 27 -134q27 -61 73.5 -105.5q46.5 -44.5 109 -69q62.5 -24.5 133.5 -24.5q57 0 108 12l5 -107q-27 -6 -55.5 -9.5q-28.5 -3.5 -57.5 -3.5q-97 0 -179.5 33q-82.5 33 -143 91.5q-60.5 58.5 -94.5 139.5q-34 81 -34 177q0 92 34 172.5q34 80.5 94.5 140q60.5 59.5 143 93.5q82.5 34 179.5 34q91 0 170 -28q79 -28 136.5 -79q57.5 -51 90.5 -123.5q33 -72.5 33 -161.5q0 -51 -14 -99.5q-14 -48.5 -42.5 -86.5q-28.5 -38 -70.5 -61.5q-42 -23.5 -97 -25.5l-115 0zM496 96q31 0 58.5 14q27.5 14 44.5 33l0 188q-20 10 -42 16q-22 6 -46 6q-33 0 -58 -11q-25 -11 -42 -29q-17 -18 -25.5 -42q-8.5 -24 -8.5 -51q0 -60 33 -92t86 -32z" />
<glyph unicode="&#65;" horiz-adv-x="715" d="M303 702h108l296 -702h-131l-73 179h-299l-73 -179h-124zM251 294h205l-102 249z" />
<glyph unicode="&#66;" horiz-adv-x="617" d="M97 698q15 1 38.5 1.5q23.5 0.5 51 1.5q27.5 1 57 1.5q29.5 0.5 55.5 0.5q63 0 106.5 -13.5q43.5 -13.5 71 -36.5q27.5 -23 40 -55q12.5 -32 12.5 -68q0 -60 -27.5 -99q-27.5 -39 -72.5 -60l0 -2q52 -13 87.5 -53q35.5 -40 35.5 -110q0 -54 -20 -93.5q-20 -39.5 -54.5 -65.5q-34.5 -26 -82.5 -38.5q-48 -12.5 -103 -12.5q-24 0 -51.5 0.5q-27.5 0.5 -54.5 1q-27 0.5 -50.5 1.5q-23.5 1 -38.5 2zM220 301v-185q13 -2 34 -3.5q21 -1.5 47 -1.5q63 0 95.5 25.5q32.5 25.5 32.5 75.5q0 45 -32 67q-32 22 -90 22zM297 588q-44 0 -77 -3l0 -177h83q43 0 73.5 22.5q30.5 22.5 30.5 70.5q0 43 -30 65t-80 22z" />
<glyph unicode="&#67;" horiz-adv-x="655" d="M630 68q-17 -18 -41 -32.5q-24 -14.5 -53.5 -25q-29.5 -10.5 -62.5 -16q-33 -5.5 -67 -5.5q-80 0 -146.5 25.5q-66.5 25.5 -114 73q-47.5 47.5 -74 114q-26.5 66.5 -26.5 148.5q0 75 23.5 141q23.5 66 69 115q45.5 49 112 77q66.5 28 153.5 28q69 0 123.5 -19.5q54.5 -19.5 89.5 -51.5l-55 -91q-32 21 -68.5 34q-36.5 13 -89.5 13q-49 0 -90.5 -17q-41.5 -17 -72 -49q-30.5 -32 -48 -77.5q-17.5 -45.5 -17.5 -102.5q0 -55 17.5 -100q17.5 -45 49.5 -77.5q32 -32.5 76.5 -50.5q44.5 -18 98.5 -18q45 0 87.5 14q42.5 14 78.5 42z" />
<glyph unicode="&#68;" horiz-adv-x="741" d="M97 700h13q16 0 41 0.5q25 0.5 52.5 1q27.5 0.5 54 1q26.5 0.5 45.5 0.5q105 0 179.5 -28q74.5 -28 122 -75.5q47.5 -47.5 69.5 -110.5q22 -63 22 -132q0 -74 -25 -139.5q-25 -65.5 -75.5 -114q-50.5 -48.5 -125.5 -77q-75 -28.5 -175 -28.5q-16 0 -37.5 0.5q-21.5 0.5 -46 0.5q-24.5 0 -50.5 0.5q-26 0.5 -50 0.5h-14zM301 588q-22 0 -41 -0.5q-19 -0.5 -40 -2.5l0 -470q26 -2 46 -2q20 0 33 0q63 0 113 17.5q50 17.5 84 49q34 31.5 52 76.5q18 45 18 101q0 53 -18 95.5q-18 42.5 -52 72.5q-34 30 -83 46.5t-112 16.5z" />
<glyph unicode="&#69;" horiz-adv-x="575" d="M97 700h405v-115h-282v-174h252v-115h-252v-181h292v-115l-415 0z" />
<glyph unicode="&#70;" horiz-adv-x="537" d="M97 700h400v-115h-277v-198h247v-115h-247v-272l-123 0z" />
<glyph unicode="&#71;" horiz-adv-x="727" d="M388 377h284v-290q-23 -23 -54.5 -41.5q-31.5 -18.5 -67 -31q-35.5 -12.5 -71.5 -19q-36 -6.5 -69 -6.5q-86 0 -153.5 25.5q-67.5 25.5 -114.5 73q-47 47.5 -72 114q-25 66.5 -25 148.5q0 75 24.5 141q24.5 66 70 115q45.5 49 110 77q64.5 28 144.5 28q75 0 128.5 -18.5q53.5 -18.5 96.5 -52.5l-52 -98q-26 25 -69 39.5q-43 14.5 -89 14.5q-51 0 -93.5 -16.5q-42.5 -16.5 -74 -48q-31.5 -31.5 -49 -77.5q-17.5 -46 -17.5 -104q0 -56 17 -101.5q17 -45.5 48 -77.5q31 -32 75 -49.5q44 -17.5 97 -17.5q20 0 41.5 4q21.5 4 41.5 10.5q20 6.5 36 15.5q16 9 26 18l0 110l-169 0z" />
<glyph unicode="&#72;" horiz-adv-x="759" d="M540 299h-320v-299h-123v700h123v-286h320v286h122v-700l-122 0z" />
<glyph unicode="&#73;" horiz-adv-x="347" d="M112 700h123v-700l-123 0z" />
<glyph unicode="&#74;" horiz-adv-x="390" d="M293 165q0 -85 -41.5 -130.5q-41.5 -45.5 -127.5 -45.5q-40 0 -72.5 13.5q-32.5 13.5 -46.5 29.5l40 94q12 -9 28.5 -15.5q16.5 -6.5 33.5 -6.5q34 0 48.5 22q14.5 22 14.5 60v514l123 0z" />
<glyph unicode="&#75;" horiz-adv-x="672" d="M97 700h123v-332l276 332h148l-288 -326l306 -374h-156l-286 361v-361l-123 0z" />
<glyph unicode="&#76;" horiz-adv-x="547" d="M97 700h123v-585h315v-115l-438 0z" />
<glyph unicode="&#77;" horiz-adv-x="901" d="M97 700h124l239 -327l228 327h116v-700h-122v506l-221 -311h-18l-223 308v-503l-123 0z" />
<glyph unicode="&#78;" horiz-adv-x="792" d="M597 0l-385 485v-485h-115v700h98l385 -487v487h115l0 -700z" />
<glyph unicode="&#79;" horiz-adv-x="819" d="M45 350q0 76 26.5 142q26.5 66 74.5 114.5q48 48.5 115 76.5q67 28 148 28q78 0 145 -26q67 -26 115.5 -73q48.5 -47 76.5 -113.5q28 -66.5 28 -148.5q0 -79 -28 -145q-28 -66 -76.5 -114q-48.5 -48 -115.5 -75q-67 -27 -145 -27q-78 0 -144.5 25.5q-66.5 25.5 -115.5 73q-49 47.5 -76.5 114q-27.5 66.5 -27.5 148.5zt0 0zM175 350q0 -53 18 -98q18 -45 49.5 -78q31.5 -33 74.5 -51.5q43 -18.5 92 -18.5q55 0 98.5 19q43.5 19 74 52q30.5 33 46.5 78q16 45 16 97q0 54 -18 99.5q-18 45.5 -50 78q-32 32.5 -75 50.5q-43 18 -92 18q-50 0 -93 -18q-43 -18 -74.5 -50.5q-31.5 -32.5 -49 -78t-17.5 -99.5z" />
<glyph unicode="&#80;" horiz-adv-x="612" d="M97 0v700q15 0 41 0.5q26 0.5 55 0.5q29 0 57 0.5q28 0.5 46 0.5q77 0 129 -19q52 -19 83.5 -50.5q31.5 -31.5 45 -72q13.5 -40.5 13.5 -83.5q0 -45 -16.5 -86q-16.5 -41 -49 -72.5q-32.5 -31.5 -80 -50q-47.5 -18.5 -110.5 -18.5q-16 0 -42 0.5q-26 0.5 -49 2.5l0 -253zM308 587q-19 0 -41 -0.5q-22 -0.5 -47 -1.5l0 -215q22 -2 44 -3.5q22 -1.5 43 -1.5q27 0 51 6.5q24 6.5 41.5 20.5q17.5 14 27.5 35.5q10 21.5 10 50.5q0 55 -33 82t-96 27z" />
<glyph unicode="&#81;" horiz-adv-x="819" d="M45 350q0 76 26.5 142q26.5 66 74.5 114.5q48 48.5 115 76.5q67 28 148 28q78 0 145 -26q67 -26 115.5 -73q48.5 -47 76.5 -113.5q28 -66.5 28 -148.5q0 -75 -25.5 -138.5q-25.5 -63.5 -70.5 -111.5l86 -100h-143l-29 33q-80 -44 -183 -44q-78 0 -144.5 25.5q-66.5 25.5 -115.5 73q-49 47.5 -76.5 114q-27.5 66.5 -27.5 148.5zt0 0zM175 350q0 -53 18 -98q18 -45 49.5 -78q31.5 -33 74.5 -51.5q43 -18.5 92 -18.5q56 0 105 22l-59 69l80 72l62 -73q23 32 35 71.5q12 39.5 12 84.5q0 54 -18 99.5q-18 45.5 -50 78q-32 32.5 -75 50.5q-43 18 -92 18q-50 0 -93 -18q-43 -18 -74.5 -50.5q-31.5 -32.5 -49 -78t-17.5 -99.5z" />
<glyph unicode="&#82;" horiz-adv-x="658" d="M97 0v700q15 0 47 0.5q32 0.5 66.5 0.5q34.5 0 63 0.5q28.5 0.5 36.5 0.5q72 0 120.5 -16.5q48.5 -16.5 78 -46q29.5 -29.5 42.5 -69q13 -39.5 13 -84.5q0 -45 -13 -79q-13 -34 -33 -58.5q-20 -24.5 -43.5 -40q-23.5 -15.5 -45.5 -22.5l219 -286h-149l-193 262h-86v-262zM304 587q-17 0 -38 -0.5q-21 -0.5 -46 -1.5l0 -208h80q27 0 51 6.5q24 6.5 42.5 20q18.5 13.5 29.5 34q11 20.5 11 47.5q0 21 -6.5 39.5q-6.5 18.5 -21.5 32.5q-15 14 -40 22t-62 8z" />
<glyph unicode="&#83;" horiz-adv-x="553" d="M378 186q0 34 -23.5 56.5q-23.5 22.5 -58.5 40.5q-35 18 -76.5 35.5q-41.5 17.5 -76.5 43q-35 25.5 -58.5 62.5q-23.5 37 -23.5 94q0 39 15 74.5q15 35.5 43 61.5q28 26 68.5 41.5q40.5 15.5 91.5 15.5q65 0 116.5 -20q51.5 -20 83.5 -55l-66 -92q-26 25 -54 38.5q-28 13.5 -70 13.5q-46 0 -72 -21q-26 -21 -26 -56q0 -36 23.5 -58.5q23.5 -22.5 58.5 -40q35 -17.5 76.5 -34.5q41.5 -17 76.5 -41.5q35 -24.5 58.5 -62q23.5 -37.5 23.5 -95.5q0 -44 -18 -80.5q-18 -36.5 -49.5 -62.5q-31.5 -26 -74.5 -40.5q-43 -14.5 -92 -14.5q-34 0 -69 7q-35 7 -66.5 21q-31.5 14 -56 34.5q-24.5 20.5 -37.5 47.5l70 84q31 -40 75.5 -59.5q44.5 -19.5 85.5 -19.5q44 0 73 21t29 61z" />
<glyph unicode="&#84;" horiz-adv-x="597" d="M10 700h577v-115h-227v-585h-123v585l-227 0z" />
<glyph unicode="&#85;" horiz-adv-x="751" d="M663 290q0 -80 -23 -137q-23 -57 -61 -93.5q-38 -36.5 -88.5 -53.5q-50.5 -17 -105.5 -17q-65 0 -120 19.5q-55 19.5 -94.5 58q-39.5 38.5 -61.5 96q-22 57.5 -22 134.5v403h123v-377q0 -49 10.5 -89.5q10.5 -40.5 32 -69q21.5 -28.5 54.5 -44.5q33 -16 78 -16q80 0 118 54q38 54 38 157v385l122 0z" />
<glyph unicode="&#86;" horiz-adv-x="656" d="M378 -2h-93l-288 702h131l208 -519l199 519l123 0z" />
<glyph unicode="&#87;" horiz-adv-x="985" d="M780 0h-115l-169 506l-166 -506h-116l-209 700h138l141 -499l156 499h122l160 -500l140 500l118 0z" />
<glyph unicode="&#88;" horiz-adv-x="669" d="M414 357l245 -357h-144l-181 263l-180 -263h-144l245 357l-234 343h144l172 -253l169 253l144 0z" />
<glyph unicode="&#89;" horiz-adv-x="629" d="M375 292v-292h-123v292l-247 408h140l174 -293l172 293l133 0z" />
<glyph unicode="&#90;" horiz-adv-x="642" d="M60 700h532v-85l-388 -500h398v-115h-562v84l387 501l-367 0z" />
<glyph unicode="&#91;" horiz-adv-x="350" d="M60 650h275v-108h-160v-635h160v-107l-275 0z" />
<glyph unicode="&#92;" horiz-adv-x="359" d="M389 -175l-90 -33l-329 886l88 33z" />
<glyph unicode="&#93;" horiz-adv-x="350" d="M290 -200h-275v107h160v635h-160v108l275 0z" />
<glyph unicode="&#94;" horiz-adv-x="507" d="M215 708h79l183 -258h-125l-98 143l-100 -143l-124 0z" />
<glyph unicode="&#95;" horiz-adv-x="344" d="M0 -85h344v-115l-344 0z" />
<glyph unicode="&#96;" horiz-adv-x="315" d="M60 660l91 68l104 -163l-68 -48z" />
<glyph unicode="&#97;" horiz-adv-x="463" d="M70 418q29 17 71.5 30q42.5 13 87.5 13q50 0 84.5 -12.5q34.5 -12.5 55.5 -36.5q21 -24 30.5 -58.5q9.5 -34.5 9.5 -79.5v-274h-100v52q-18 -26 -52.5 -42q-34.5 -16 -80.5 -16q-62 0 -101.5 36q-39.5 36 -39.5 102q0 37 13 64.5q13 27.5 35 45.5q22 18 52 27q30 9 64 9q30 0 57.5 -8.5q27.5 -8.5 44.5 -20.5q2 57 -15.5 86.5q-17.5 29.5 -68.5 29.5q-39 0 -66 -10q-27 -10 -52 -21zM214 91q36 0 56 13q20 13 31 28l0 46q-29 22 -79 22q-29 0 -50.5 -13.5q-21.5 -13.5 -21.5 -42.5q0 -26 18.5 -39.5t45.5 -13.5z" />
<glyph unicode="&#98;" horiz-adv-x="548" d="M64 700h115v-278q21 17 52 28q31 11 67 11q50 0 90 -17q40 -17 67.5 -47.5q27.5 -30.5 42 -72.5q14.5 -42 14.5 -92q0 -56 -18 -100.5q-18 -44.5 -51.5 -76.5q-33.5 -32 -81 -49q-47.5 -17 -106.5 -17q-56 0 -108 15q-52 15 -83 35zM271 353q-30 0 -54 -13q-24 -13 -38 -30l0 -191q36 -23 82 -23q54 0 91 33.5q37 33.5 37 94.5q0 65 -34.5 97t-83.5 32z" />
<glyph unicode="&#99;" horiz-adv-x="487" d="M459 67q-29 -38 -76.5 -58q-47.5 -20 -102.5 -20q-55 0 -100 17q-45 17 -77 48q-32 31 -49.5 74.5q-17.5 43.5 -17.5 96.5q0 49 17 92q17 43 48 75q31 32 74 50.5q43 18.5 94 18.5q56 0 102.5 -14.5q46.5 -14.5 78.5 -46.5l-54 -91q-26 25 -53.5 34.5q-27.5 9.5 -58.5 9.5q-24 0 -46.5 -9q-22.5 -9 -40 -25.5q-17.5 -16.5 -28 -40q-10.5 -23.5 -10.5 -53.5q0 -30 10.5 -54q10.5 -24 28.5 -40.5q18 -16.5 41.5 -25.5q23.5 -9 49.5 -9q37 0 65.5 15.5q28.5 15.5 50.5 39.5z" />
<glyph unicode="&#100;" horiz-adv-x="556" d="M377 47q-23 -24 -54 -39.5q-31 -15.5 -75 -15.5q-48 0 -87.5 16.5q-39.5 16.5 -67 46.5q-27.5 30 -42.5 72q-15 42 -15 93q0 53 18 97.5q18 44.5 51 76.5q33 32 78.5 49.5q45.5 17.5 99.5 17.5q30 0 52.5 -5.5q22.5 -5.5 41.5 -16.5l0 261h115v-700h-115zM272 99q32 0 58.5 13q26.5 13 46.5 33l0 181q-44 27 -89 27q-26 0 -49 -8.5q-23 -8.5 -41 -25q-18 -16.5 -28.5 -40.5q-10.5 -24 -10.5 -55q0 -30 9 -53.5q9 -23.5 24.5 -39q15.5 -15.5 36 -24t43.5 -8.5z" />
<glyph unicode="&#101;" horiz-adv-x="516" d="M450 45q-34 -29 -79 -42.5q-45 -13.5 -93 -13.5q-54 0 -99 17q-45 17 -76.5 48q-31.5 31 -49 74.5q-17.5 43.5 -17.5 96.5q0 49 16.5 92q16.5 43 47 75q30.5 32 74.5 50.5q44 18.5 100 18.5q43 0 82 -15q39 -15 68 -42.5q29 -27.5 46 -66q17 -38.5 17 -85.5q0 -21 -1.5 -35q-1.5 -14 -5.5 -27l-325 0q8 -51 44.5 -78q36.5 -27 90.5 -27q42 0 74.5 12.5q32.5 12.5 52.5 28.5zM269 365q-52 0 -80.5 -26.5q-28.5 -26.5 -37.5 -71.5l221 0q1 42 -26 70t-77 28z" />
<glyph unicode="&#102;" horiz-adv-x="325" d="M69 523q0 94 42.5 141q42.5 47 117.5 47q41 0 75 -12q34 -12 51 -30l-39 -88q-11 11 -28.5 16.5q-17.5 5.5 -37.5 5.5q-29 0 -47.5 -21q-18.5 -21 -18.5 -68v-64h122v-108h-122v-342l-115 0z" />
<glyph unicode="&#103;" horiz-adv-x="499" d="M5 -61q0 57 40.5 91q40.5 34 105.5 48q-8 14 -8 31q0 19 10 32q-51 20 -79 60.5q-28 40.5 -28 90.5q0 34 13.5 64.5q13.5 30.5 38 53.5q24.5 23 60 37q35.5 14 80.5 14q34 0 63 -8.5q29 -8.5 52 -23.5l136 30l4 -92l-75 -17q11 -28 11 -58q0 -34 -13.5 -64q-13.5 -30 -38.5 -52.5q-25 -22.5 -60.5 -36q-35.5 -13.5 -78.5 -13.5h-8q-2 -5 -2 -9q0 -4 0 -8q0 -13 6 -23l5 0q49 0 92 -9q43 -9 74.5 -27q31.5 -18 49.5 -45.5q18 -27.5 18 -65.5q0 -38 -18 -65.5q-18 -27.5 -49.5 -45.5q-31.5 -18 -74.5 -27q-43 -9 -92 -9q-49 0 -92 8.5q-43 8.5 -74.5 26.5q-31.5 18 -49.5 45.5q-18 27.5 -18 66.5zt0 0zM112 -61q0 -26 34 -40.5q34 -14.5 93 -14.5q59 0 92.5 14q33.5 14 33.5 41q0 25 -31.5 40q-31.5 15 -94.5 15q-62 0 -94.5 -15q-32.5 -15 -32.5 -40zt0 0zM154 292q0 -32 22.5 -52.5q22.5 -20.5 61.5 -20.5q37 0 60.5 19.5q23.5 19.5 23.5 53.5q0 32 -21.5 54q-21.5 22 -62.5 22q-39 0 -61.5 -22.5t-22.5 -53.5z" />
<glyph unicode="&#104;" horiz-adv-x="546" d="M64 700h115v-291q22 21 56 35q34 14 73 14q41 0 75 -11q34 -11 58.5 -34.5q24.5 -23.5 38 -61q13.5 -37.5 13.5 -90.5v-261h-115v246q0 51 -26 77.5q-26 26.5 -74 26.5q-58 0 -99 -41l0 -309l-115 0z" />
<glyph unicode="&#105;" horiz-adv-x="277" d="M81 450h115v-450h-115zM69 612q0 31 21.5 49q21.5 18 50.5 18q25 0 45.5 -18q20.5 -18 20.5 -49q0 -35 -20.5 -53.5q-20.5 -18.5 -45.5 -18.5q-29 0 -50.5 18.5t-21.5 53.5z" />
<glyph unicode="&#106;" horiz-adv-x="284" d="M202 -33q0 -83 -33 -129q-33 -46 -108 -46q-36 0 -66 9.5q-30 9.5 -44 22.5l31 91q12 -8 24 -12q12 -4 27 -4q30 0 42 21.5q12 21.5 12 56.5v473h115zM76 612q0 31 21.5 49q21.5 18 50.5 18q25 0 45.5 -18q20.5 -18 20.5 -49q0 -35 -20.5 -53.5q-20.5 -18.5 -45.5 -18.5q-29 0 -50.5 18.5t-21.5 53.5z" />
<glyph unicode="&#107;" horiz-adv-x="514" d="M318 244l189 -244h-148l-178 235l161 215h145zM64 700h115v-700l-115 0z" />
<glyph unicode="&#108;" horiz-adv-x="299" d="M64 700h115v-529q0 -38 9.5 -55.5q9.5 -17.5 29.5 -17.5q14 0 25 5q11 5 22 13l24 -88q-20 -16 -49 -27q-29 -11 -70 -11q-52 0 -79 32.5q-27 32.5 -27 101.5z" />
<glyph unicode="&#109;" horiz-adv-x="800" d="M747 0h-115v264q0 42 -18 64q-18 22 -59 22q-32 0 -56.5 -14.5q-24.5 -14.5 -36.5 -37.5q0 -5 0.5 -15q0.5 -10 0.5 -18v-265h-115v272q0 35 -19 56.5q-19 21.5 -56 21.5q-31 0 -55 -12.5q-24 -12.5 -39 -35.5l0 -302h-115v450h115v-50q24 27 61.5 42.5q37.5 15.5 79.5 15.5q52 0 85.5 -20.5q33.5 -20.5 45.5 -51.5q24 32 61.5 52q37.5 20 90.5 20q31 0 57 -8.5q26 -8.5 45.5 -27.5q19.5 -19 30.5 -50.5q11 -31.5 11 -77.5z" />
<glyph unicode="&#110;" horiz-adv-x="546" d="M64 450h115v-45q20 22 54 37.5q34 15.5 75 15.5q41 0 75 -10.5q34 -10.5 58.5 -33.5q24.5 -23 38 -60q13.5 -37 13.5 -90v-264h-115v244q0 54 -26.5 80q-26.5 26 -74.5 26q-29 0 -53.5 -11.5q-24.5 -11.5 -44.5 -31.5l0 -307l-115 0z" />
<glyph unicode="&#111;" horiz-adv-x="562" d="M36 225q0 51 17.5 94q17.5 43 49.5 74.5q32 31.5 77 49.5q45 18 101 18q56 0 101 -18q45 -18 77 -49.5q32 -31.5 49.5 -74.5q17.5 -43 17.5 -94q0 -51 -17.5 -94q-17.5 -43 -49.5 -74.5q-32 -31.5 -77 -49.5q-45 -18 -101 -18q-56 0 -101 18q-45 18 -77 49.5q-32 31.5 -49.5 74.5q-17.5 43 -17.5 94zt0 0zM159 225q0 -57 34.5 -93q34.5 -36 87.5 -36q54 0 88.5 35q34.5 35 34.5 94q0 28 -9.5 52q-9.5 24 -26 40.5q-16.5 16.5 -39 26q-22.5 9.5 -48.5 9.5q-26 0 -48 -9q-22 -9 -38.5 -25.5q-16.5 -16.5 -26 -40.5t-9.5 -53z" />
<glyph unicode="&#112;" horiz-adv-x="558" d="M64 450h115v-43q21 23 58 38.5q37 15.5 81 15.5q46 0 84 -17q38 -17 64.5 -47.5q26.5 -30.5 41 -72.5q14.5 -42 14.5 -92q0 -51 -17 -95.5q-17 -44.5 -48 -77.5q-31 -33 -75 -51.5q-44 -18.5 -98 -18.5q-30 0 -57.5 5.5q-27.5 5.5 -47.5 16.5l0 -211h-115zM282 353q-29 0 -55.5 -13q-26.5 -13 -47.5 -36l0 -182q23 -15 44.5 -20.5q21.5 -5.5 50.5 -5.5q30 0 53.5 10q23.5 10 39.5 28q16 18 24.5 42.5q8.5 24.5 8.5 52.5q0 54 -30.5 89t-87.5 35z" />
<glyph unicode="&#113;" horiz-adv-x="559" d="M381 23q-26 -17 -55 -25.5q-29 -8.5 -56 -8.5q-54 0 -97.5 17q-43.5 17 -73.5 48q-30 31 -46.5 74.5q-16.5 43.5 -16.5 96.5q0 49 19 92q19 43 53 75q34 32 81.5 50.5q47.5 18.5 104.5 18.5q58 0 112 -15.5q54 -15.5 90 -38.5l0 -607h-115zM285 96q27 0 53 11.5q26 11.5 43 29.5l0 194q-20 10 -42 16q-22 6 -46 6q-33 0 -58 -11q-25 -11 -42 -29q-17 -18 -25.5 -42q-8.5 -24 -8.5 -51q0 -54 34 -89t92 -35z" />
<glyph unicode="&#114;" horiz-adv-x="354" d="M64 450h115v-44q16 22 39 37q23 15 64 15q28 0 43.5 -4.5q15.5 -4.5 26.5 -12.5l-41 -108q-17 10 -28.5 13.5q-11.5 3.5 -29.5 3.5q-30 0 -47 -14q-17 -14 -27 -34l0 -302l-115 0z" />
<glyph unicode="&#115;" horiz-adv-x="444" d="M292 127q0 18 -18 28.5q-18 10.5 -45 18.5q-27 8 -58.5 17q-31.5 9 -58.5 25q-27 16 -45 41.5q-18 25.5 -18 66.5q0 33 12.5 58.5q12.5 25.5 35 43q22.5 17.5 52.5 26.5q30 9 65 9q66 0 108 -18.5q42 -18.5 63 -38.5l-43 -82q-20 16 -53 29.5q-33 13.5 -69 13.5q-26 0 -41 -12q-15 -12 -15 -27q0 -19 18 -29.5q18 -10.5 45 -18.5q27 -8 58.5 -17q31.5 -9 58.5 -24q27 -15 45 -39.5q18 -24.5 18 -64.5q0 -67 -49.5 -105.5q-49.5 -38.5 -132.5 -38.5q-31 0 -61.5 7.5q-30.5 7.5 -56 19q-25.5 11.5 -44 25q-18.5 13.5 -26.5 25.5l56 75q10 -11 27 -21q17 -10 36.5 -18q19.5 -8 39.5 -12.5q20 -4.5 37 -4.5q25 0 42 10.5t17 31.5z" />
<glyph unicode="&#116;" horiz-adv-x="360" d="M54 575h115v-125h145v-108h-145v-164q0 -37 12.5 -59q12.5 -22 41.5 -22q23 0 40 8.5q17 8.5 29 17.5l35 -89q-20 -17 -54.5 -30.5q-34.5 -13.5 -78.5 -13.5q-77 0 -108.5 47q-31.5 47 -31.5 134z" />
<glyph unicode="&#117;" horiz-adv-x="535" d="M471 0h-115v55q-20 -25 -55.5 -45.5q-35.5 -20.5 -88.5 -20.5q-33 0 -62 11q-29 11 -50 33.5q-21 22.5 -33.5 58q-12.5 35.5 -12.5 83.5v275h115v-251q0 -45 19 -74q19 -29 67 -29q29 0 55 14.5q26 14.5 46 40.5l0 299l115 0z" />
<glyph unicode="&#118;" horiz-adv-x="481" d="M289 -2h-85l-207 452h137l83 -193q9 -20 18.5 -48q9.5 -28 15.5 -54q6 26 15 54q9 28 18 50l78 191l121 0z" />
<glyph unicode="&#119;" horiz-adv-x="721" d="M574 -2h-103l-96 250q-5 13 -8 26.5q-3 13.5 -7 26.5q-6 -29 -16 -55l-95 -248h-98l-146 452h123l72 -245q5 -17 7.5 -30.5q2.5 -13.5 5.5 -29.5q4 14 7 27.5q3 13.5 10 32.5l84 245h102l87 -244q5 -15 9 -30.5q4 -15.5 8 -31.5q3 16 6.5 32q3.5 16 7.5 33l66 241l116 0z" />
<glyph unicode="&#120;" horiz-adv-x="522" d="M344 235l160 -235h-140l-105 162l-109 -162h-133l160 229l-150 221h141l95 -149l98 149l133 0z" />
<glyph unicode="&#121;" horiz-adv-x="503" d="M321 0q-25 -60 -46 -99q-21 -39 -41 -61.5q-20 -22.5 -41 -31q-21 -8.5 -46 -8.5q-31 0 -54 10.5q-23 10.5 -43 24.5l37 87q9 -5 21 -10.5q12 -5.5 26 -5.5q41 0 69 70l10 24l-208 450h138l105 -246q7 -17 12 -32.5q5 -15.5 10 -32.5q3 16 6.5 32.5q3.5 16.5 9.5 33.5l81 245l131 0z" />
<glyph unicode="&#122;" horiz-adv-x="490" d="M57 450h390v-83l-244 -260h239v-107h-400v83l244 259l-229 0z" />
<glyph unicode="&#123;" horiz-adv-x="362" d="M110 77q0 30 -8.5 49q-8.5 19 -21.5 30q-13 11 -29 15q-16 4 -31 4l0 100q13 0 29 4.5q16 4.5 29.5 17q13.5 12.5 22.5 34q9 21.5 9 54.5v112q0 77 34.5 115q34.5 38 122.5 38h75v-108h-46q-40 0 -55.5 -17.5q-15.5 -17.5 -15.5 -67.5v-117q0 -49 -20.5 -79q-20.5 -30 -54.5 -35q32 -4 53.5 -30q21.5 -26 21.5 -84v-119q0 -46 17.5 -66q17.5 -20 59.5 -20h40v-107h-82q-72 0 -111 33q-39 33 -39 113z" />
<glyph unicode="&#124;" horiz-adv-x="340" d="M112 700h115v-700l-115 0z" />
<glyph unicode="&#125;" horiz-adv-x="362" d="M252 -54q0 -80 -39 -113q-39 -33 -110 -33h-83v107h40q42 0 59.5 20q17.5 20 17.5 66v119q0 58 21.5 84q21.5 26 53.5 30q-34 5 -54.5 35q-20.5 30 -20.5 79v117q0 50 -15.5 67.5q-15.5 17.5 -55.5 17.5h-46v108h75q44 0 74 -9.5q30 -9.5 48.5 -28.5q18.5 -19 26.5 -48q8 -29 8 -67v-112q0 -33 9 -54.5q9 -21.5 22.5 -34q13.5 -12.5 29 -17q15.5 -4.5 29.5 -4.5l0 -100q-15 0 -31 -4q-16 -4 -29 -15q-13 -11 -21.5 -30q-8.5 -19 -8.5 -49z" />
<glyph unicode="&#126;" horiz-adv-x="596" d="M42 362q32 36 70 58q38 22 76 22q31 0 60 -10.5q29 -10.5 58 -23.5q29 -13 57.5 -23.5q28.5 -10.5 57.5 -10.5q23 0 47 13q24 13 41 32l45 -79q-29 -27 -64 -46.5q-35 -19.5 -70 -19.5q-30 0 -59 10.5q-29 10.5 -57 23.5q-28 13 -55.5 23.5q-27.5 10.5 -53.5 10.5q-32 0 -58 -17.5q-26 -17.5 -45 -36.5z" />
<glyph unicode="&#160;" horiz-adv-x="212" />
<glyph unicode="&#161;" horiz-adv-x="310" d="M216 -244h-122v458h122zM232 381q0 -13 -5.5 -26.5q-5.5 -13.5 -16 -24q-10.5 -10.5 -25 -17q-14.5 -6.5 -33.5 -6.5q-16 0 -29.5 6.5q-13.5 6.5 -23 17q-9.5 10.5 -15 24q-5.5 13.5 -5.5 26.5q0 15 5.5 29.5q5.5 14.5 15 26q9.5 11.5 23 18q13.5 6.5 29.5 6.5q38 0 59 -24.5t21 -55.5z" />
<glyph unicode="&#162;" horiz-adv-x="596" d="M510 67q-23 -30 -57 -48.5q-34 -18.5 -75 -25.5l0 -113h-115v117q-81 18 -128.5 78q-47.5 60 -47.5 150q0 42 12.5 79.5q12.5 37.5 35.5 68q23 30.5 55.5 51.5q32.5 21 72.5 30l0 110h115v-107q37 -6 68.5 -20q31.5 -14 54.5 -37l-54 -91q-26 25 -53.5 34.5q-27.5 9.5 -58.5 9.5q-24 0 -46.5 -9q-22.5 -9 -40 -25.5q-17.5 -16.5 -28 -40q-10.5 -23.5 -10.5 -53.5q0 -30 10.5 -54q10.5 -24 28.5 -40.5q18 -16.5 41.5 -25.5q23.5 -9 49.5 -9q37 0 65.5 15.5q28.5 15.5 50.5 39.5z" />
<glyph unicode="&#163;" horiz-adv-x="596" d="M68 357h80q-8 18 -17.5 35q-9.5 17 -17.5 36q-8 19 -13 40q-5 21 -5 47q0 41 16.5 76q16.5 35 46.5 61q30 26 71.5 41q41.5 15 91.5 15q66 0 114.5 -21.5q48.5 -21.5 81.5 -57.5l-63 -90q-30 28 -60 41q-30 13 -68 13q-45 0 -73 -25q-28 -25 -28 -62q0 -23 6 -41.5q6 -18.5 15 -35.5q9 -17 19 -34q10 -17 17 -38l150 0v-92h-140q-5 -33 -20.5 -59.5q-15.5 -26.5 -34.5 -48.5q22 -5 44.5 -13q22.5 -8 44 -15.5q21.5 -7.5 43.5 -12.5q22 -5 44 -5q28 0 53.5 8.5q25.5 8.5 54.5 36.5l51 -90q-32 -33 -74 -51.5q-42 -18.5 -87 -18.5q-29 0 -57.5 8q-28.5 8 -56.5 18q-28 10 -56.5 18q-28.5 8 -57.5 8q-29 0 -55.5 -15.5q-26.5 -15.5 -50.5 -39.5l-46 92q41 48 94 67q20 26 33 53.5q13 27.5 14 59.5l-104 0z" />
<glyph unicode="&#164;" horiz-adv-x="596" d="M68 342q0 70 35 125l-77 79l70 70l78 -79q26 15 57 23.5q31 8.5 67 8.5q36 0 66.5 -8.5q30.5 -8.5 56.5 -23.5l81 80l70 -70l-79 -79q17 -28 26.5 -60q9.5 -32 9.5 -66q0 -33 -9 -65q-9 -32 -26 -59l77 -76l-71 -71l-77 77q-53 -33 -125 -33q-72 0 -125 33l-79 -80l-71 71l79 79q-17 28 -25.5 59.5q-8.5 31.5 -8.5 64.5zt0 0zM175 342q0 -26 8.5 -49q8.5 -23 24 -40.5q15.5 -17.5 38.5 -27.5q23 -10 52 -10q30 0 53 10q23 10 38.5 27.5q15.5 17.5 23.5 40.5q8 23 8 49q0 57 -32.5 92q-32.5 35 -90.5 35q-57 0 -90 -35t-33 -92z" />
<glyph unicode="&#165;" horiz-adv-x="596" d="M66 385h118l-173 315h140l151 -293l150 293h133l-176 -315h121v-93h-172v-82h172v-93h-172v-117h-122v117h-170v93h170v82l-170 0z" />
<glyph unicode="&#166;" horiz-adv-x="340" d="M112 440v260h115v-260zM227 260v-260h-115l0 260z" />
<glyph unicode="&#167;" horiz-adv-x="524" d="M57 249q0 60 31 106.5q31 46.5 91 66.5q-31 20 -51.5 54q-20.5 34 -20.5 81q0 28 11 54q11 26 32.5 46q21.5 20 53.5 31.5q32 11.5 74 11.5q49 0 85 -20.5q36 -20.5 59 -49.5l-69 -77q-14 16 -29.5 27.5q-15.5 11.5 -41.5 11.5q-24 0 -42 -17q-18 -17 -18 -41q0 -34 20 -58q20 -24 52 -43q42 -5 74 -21q32 -16 54 -40.5q22 -24.5 33 -55.5q11 -31 11 -67q0 -60 -30.5 -106.5q-30.5 -46.5 -90.5 -66.5q30 -20 49.5 -54q19.5 -34 19.5 -79q0 -29 -11 -55q-11 -26 -32.5 -45.5q-21.5 -19.5 -53.5 -31q-32 -11.5 -74 -11.5q-48 0 -84 20.5q-36 20.5 -59 49.5l69 77q14 -16 29.5 -28q15.5 -12 40.5 -12q25 0 42.5 17.5q17.5 17.5 17.5 41.5q0 35 -19 57.5q-19 22.5 -52 41.5q-42 5 -73.5 21q-31.5 16 -53.5 40.5q-22 24.5 -33 56q-11 31.5 -11 66.5zt0 0zM172 249q0 -15 6 -30.5q6 -15.5 17 -28q11 -12.5 28 -20q17 -7.5 39 -7.5q23 0 40 7.5q17 7.5 28 19.5q11 12 16 27.5q5 15.5 5 31.5q0 16 -5.5 31.5q-5.5 15.5 -17 27.5q-11.5 12 -28 19.5q-16.5 7.5 -38.5 7.5q-22 0 -38.5 -7.5q-16.5 -7.5 -28 -19.5q-11.5 -12 -17.5 -27.5t-6 -31.5z" />
<glyph unicode="&#168;" horiz-adv-x="443" d="M60 599q0 30 19.5 47q19.5 17 45.5 17q23 0 41.5 -17q18.5 -17 18.5 -47q0 -32 -18.5 -49.5q-18.5 -17.5 -41.5 -17.5q-26 0 -45.5 17.5q-19.5 17.5 -19.5 49.5zt0 0zM259 599q0 30 19 47q19 17 45 17q23 0 41.5 -17q18.5 -17 18.5 -47q0 -32 -18.5 -49.5q-18.5 -17.5 -41.5 -17.5q-26 0 -45 17.5t-19 49.5z" />
<glyph unicode="&#169;" horiz-adv-x="1018" d="M72 221q0 91 33.5 171q33.5 80 92.5 138.5q59 58.5 138.5 92.5q79.5 34 172.5 34q93 0 172.5 -34q79.5 -34 138 -92.5q58.5 -58.5 92 -138.5q33.5 -80 33.5 -171q0 -92 -33.5 -171.5q-33.5 -79.5 -92 -138.5q-58.5 -59 -138 -93q-79.5 -34 -172.5 -34q-93 0 -172.5 34q-79.5 34 -138.5 93q-59 59 -92.5 138.5q-33.5 79.5 -33.5 171.5zt0 0zM172 220q0 -69 25.5 -130q25.5 -61 70.5 -107q45 -46 107 -72.5q62 -26.5 135 -26.5q72 0 133.5 26.5q61.5 26.5 106.5 72.5q45 46 70 107q25 61 25 130q0 70 -25 131q-25 61 -70 107q-45 46 -106.5 72.5q-61.5 26.5 -133.5 26.5q-73 0 -135 -26.5q-62 -26.5 -107 -72.5q-45 -46 -70.5 -107q-25.5 -61 -25.5 -131zt0 0zM695 67q-29 -38 -76.5 -58q-47.5 -20 -102.5 -20q-55 0 -100 17q-45 17 -77 48q-32 31 -49.5 74.5q-17.5 43.5 -17.5 96.5q0 49 17 92q17 43 48 75q31 32 74 50.5q43 18.5 94 18.5q56 0 102.5 -14.5q46.5 -14.5 78.5 -46.5l-54 -91q-26 25 -53.5 34.5q-27.5 9.5 -58.5 9.5q-24 0 -46.5 -9q-22.5 -9 -40 -25.5q-17.5 -16.5 -28 -40q-10.5 -23.5 -10.5 -53.5q0 -30 10.5 -54q10.5 -24 28.5 -40.5q18 -16.5 41.5 -25.5q23.5 -9 49.5 -9q37 0 65.5 15.5q28.5 15.5 50.5 39.5z" />
<glyph unicode="&#170;" horiz-adv-x="445" d="M81 620q23 14 57.5 26q34.5 12 88.5 12q29 0 56.5 -8q27.5 -8 49 -24.5q21.5 -16.5 34.5 -42.5q13 -26 13 -61v-215h-100v43q-18 -21 -45.5 -34.5q-27.5 -13.5 -78.5 -13.5q-26 0 -46.5 8.5q-20.5 8.5 -34.5 23.5q-14 15 -22 35q-8 20 -8 42q0 57 34 86.5q34 29.5 95 29.5q62 0 106 -21q-2 36 -21.5 51.5q-19.5 15.5 -51.5 15.5q-29 0 -50.5 -6q-21.5 -6 -35.5 -14zM207 387q20 0 38.5 7q18.5 7 34.5 18l0 31q-16 6 -34 10q-18 4 -37 4q-29 0 -43 -10q-14 -10 -14 -25q0 -15 13 -25t42 -10z" />
<glyph unicode="&#171;" horiz-adv-x="561" d="M247 248v4l197 226l75 -67l-139 -161l138 -163l-78 -65zM37 248v4l197 226l75 -67l-139 -161l138 -163l-78 -65z" />
<glyph unicode="&#172;" horiz-adv-x="596" d="M51 410h494v-231h-100v131l-394 0z" />
<glyph unicode="&#173;" horiz-adv-x="376" d="M62 327h252v-107l-252 0z" />
<glyph unicode="&#174;" horiz-adv-x="663" d="M45 497q0 59 22.5 111q22.5 52 61.5 90.5q39 38.5 91.5 61q52.5 22.5 112.5 22.5q59 0 111 -22.5q52 -22.5 90.5 -61q38.5 -38.5 61 -90.5q22.5 -52 22.5 -111q0 -60 -22.5 -112.5q-22.5 -52.5 -61 -91.5q-38.5 -39 -90.5 -61.5q-52 -22.5 -111 -22.5q-60 0 -112.5 22.5q-52.5 22.5 -91.5 61.5q-39 39 -61.5 91.5q-22.5 52.5 -22.5 112.5zt0 0zM137 496q0 -40 15.5 -75.5q15.5 -35.5 41.5 -61.5q26 -26 61.5 -41.5q35.5 -15.5 75.5 -15.5q40 0 75.5 15.5q35.5 15.5 61.5 41.5q26 26 41.5 61.5q15.5 35.5 15.5 75.5q0 40 -15.5 75.5q-15.5 35.5 -41.5 61.5q-26 26 -61.5 41.5q-35.5 15.5 -75.5 15.5q-40 0 -75.5 -15.5q-35.5 -15.5 -61.5 -41.5q-26 -26 -41.5 -61.5q-15.5 -35.5 -15.5 -75.5zt0 0zM221 360v280h117q60 0 87 -25.5q27 -25.5 27 -67.5q0 -30 -16 -51.5q-16 -21.5 -37 -29.5l58 -106h-89l-43 88h-27v-88zM298 585v-82h29q23 0 35 13q12 13 12 30q0 18 -11.5 28.5q-11.5 10.5 -35.5 10.5z" />
<glyph unicode="&#175;" horiz-adv-x="399" d="M60 642h279v-92l-279 0z" />
<glyph unicode="&#176;" horiz-adv-x="425" d="M45 568q0 36 13 67q13 31 35.5 53.5q22.5 22.5 53 35.5q30.5 13 64.5 13q35 0 65.5 -12q30.5 -12 53.5 -33.5q23 -21.5 36.5 -51.5q13.5 -30 13.5 -66q0 -36 -13.5 -67q-13.5 -31 -36.5 -54.5q-23 -23.5 -53.5 -37q-30.5 -13.5 -65.5 -13.5q-34 0 -64.5 12.5q-30.5 12.5 -53 35q-22.5 22.5 -35.5 53q-13 30.5 -13 65.5zt0 0zM145 570q0 -28 20 -48q20 -20 47 -20q28 0 48 20q20 20 20 48q0 28 -20 47.5q-20 19.5 -48 19.5q-27 0 -47 -19.5t-20 -47.5z" />
<glyph unicode="&#177;" horiz-adv-x="596" d="M66 502h177v181h108v-181h179v-100h-179v-103h-108v103h-177zM66 255h464v-100l-464 0z" />
<glyph unicode="&#178;" horiz-adv-x="363" d="M30 423q29 17 61 36.5q32 19.5 59 40q27 20.5 44.5 41q17.5 20.5 17.5 39.5q0 18 -11.5 28.5q-11.5 10.5 -31.5 10.5q-21 0 -36 -16q-15 -16 -18 -34l-83 29q8 49 46.5 77.5q38.5 28.5 100.5 28.5q69 0 104.5 -31q35.5 -31 35.5 -80q0 -33 -18 -59q-18 -26 -43.5 -45.5q-25.5 -19.5 -52.5 -33q-27 -13.5 -45 -20.5l175 0v-85l-305 0z" />
<glyph unicode="&#179;" horiz-adv-x="361" d="M175 344q-51 0 -94 18q-43 18 -64 56l58 53q10 -18 33.5 -32q23.5 -14 49.5 -14q32 0 46.5 10q14.5 10 14.5 25q0 13 -13.5 22.5q-13.5 9.5 -45.5 9.5h-30v70h28q23 0 35.5 9.5q12.5 9.5 12.5 24.5q0 13 -11.5 21q-11.5 8 -33.5 8q-30 0 -51 -12.5q-21 -12.5 -34 -28.5l-48 55q17 26 53.5 46.5q36.5 20.5 99.5 20.5q58 0 95.5 -23.5q37.5 -23.5 37.5 -65.5q0 -32 -21 -53q-21 -21 -56 -29l0 -1q45 -3 67 -27q22 -24 22 -56q0 -25 -12.5 -45q-12.5 -20 -33 -33.5q-20.5 -13.5 -48 -21t-57.5 -7.5z" />
<glyph unicode="&#180;" horiz-adv-x="315" d="M129 517l-69 48l105 165l90 -68z" />
<glyph unicode="&#181;" horiz-adv-x="542" d="M478 0h-115v55q-20 -25 -55.5 -45.5q-35.5 -20.5 -88.5 -20.5q-21 0 -43 5l0 -194h-115v650h115v-260q2 -42 21.5 -68q19.5 -26 64.5 -26q29 0 55 14.5q26 14.5 46 40.5l0 299l115 0z" />
<glyph unicode="&#182;" horiz-adv-x="491" d="M37 481q0 51 17 91.5q17 40.5 46.5 69q29.5 28.5 70 43.5q40.5 15 88.5 15h207v-108h-94v-584q0 -216 -187 -216q-40 0 -75.5 14.5q-35.5 14.5 -54.5 34.5l45 83q12 -9 32.5 -17q20.5 -8 44.5 -8q24 0 39.5 9q15.5 9 24.5 24q9 15 12.5 35.5q3.5 20.5 3.5 44.5v251q-43 0 -82.5 15q-39.5 15 -70 43q-30.5 28 -49 68.5t-18.5 91.5z" />
<glyph unicode="&#183;" horiz-adv-x="212" d="M29 302q0 13 5.5 26.5q5.5 13.5 16 24q10.5 10.5 25 17q14.5 6.5 33.5 6.5q16 0 29.5 -6.5q13.5 -6.5 23 -17q9.5 -10.5 15 -24q5.5 -13.5 5.5 -26.5q0 -15 -5.5 -29.5q-5.5 -14.5 -15 -26q-9.5 -11.5 -23 -18q-13.5 -6.5 -29.5 -6.5q-38 0 -59 24.5t-21 55.5z" />
<glyph unicode="&#184;" horiz-adv-x="378" d="M94 -112q14 -11 32.5 -18.5q18.5 -7.5 37.5 -7.5q17 0 28 6.5q11 6.5 11 18.5q0 14 -9 21q-9 7 -32 7h-6v85h58v-35q104 -6 104 -85q0 -38 -34.5 -63q-34.5 -25 -103.5 -25q-48 0 -75.5 14.5q-27.5 14.5 -44.5 27.5z" />
<glyph unicode="&#185;" horiz-adv-x="269" d="M129 699h72v-349h-100v234l-48 -28l-37 68z" />
<glyph unicode="&#186;" horiz-adv-x="499" d="M52 480q0 40 14.5 73q14.5 33 41 56.5q26.5 23.5 62.5 36q36 12.5 79 12.5q43 0 79 -12.5q36 -12.5 62 -36q26 -23.5 41 -56.5q15 -33 15 -73q0 -40 -15 -73q-15 -33 -41 -56.5q-26 -23.5 -62 -36.5q-36 -13 -79 -13q-43 0 -79 13q-36 13 -62.5 36.5q-26.5 23.5 -41 56.5q-14.5 33 -14.5 73zt0 0zM160 480q0 -40 26 -63q26 -23 63 -23q39 0 64.5 23q25.5 23 25.5 63q0 39 -26 62q-26 23 -64 23q-38 0 -63.5 -23t-25.5 -62z" />
<glyph unicode="&#187;" horiz-adv-x="561" d="M331 22l-78 65l138 163l-139 161l75 67l197 -226v-4zM121 22l-78 65l138 163l-139 161l75 67l197 -226l0 -4z" />
<glyph unicode="&#188;" horiz-adv-x="693" d="M134 699h72v-349h-100v234l-48 -28l-37 68zM550 711l65 -49l-504 -673l-66 46zM525 70h-193v67l155 213h95l-148 -202h91v77h92v-77h56v-78h-56v-70l-92 0z" />
<glyph unicode="&#189;" horiz-adv-x="710" d="M134 699h72v-349h-100v234l-48 -28l-37 68zM540 711l65 -49l-504 -673l-66 46zM365 73q29 17 61 36.5q32 19.5 59 40q27 20.5 44.5 41q17.5 20.5 17.5 39.5q0 18 -11.5 28.5q-11.5 10.5 -31.5 10.5q-21 0 -36 -16q-15 -16 -18 -34l-83 29q8 49 46.5 77.5q38.5 28.5 100.5 28.5q69 0 104.5 -31q35.5 -31 35.5 -80q0 -33 -18 -59q-18 -26 -43.5 -45.5q-25.5 -19.5 -52.5 -33q-27 -13.5 -45 -20.5l175 0v-85l-305 0z" />
<glyph unicode="&#190;" horiz-adv-x="753" d="M620 711l65 -49l-504 -673l-66 46zM585 70h-193v67l155 213h95l-148 -202h91v77h92v-77h56v-78h-56v-70h-92zM182 344q-51 0 -94 18q-43 18 -64 56l58 53q10 -18 33.5 -32q23.5 -14 49.5 -14q32 0 46.5 10q14.5 10 14.5 25q0 13 -13.5 22.5q-13.5 9.5 -45.5 9.5h-30v70h28q23 0 35.5 9.5q12.5 9.5 12.5 24.5q0 13 -11.5 21q-11.5 8 -33.5 8q-30 0 -51 -12.5q-21 -12.5 -34 -28.5l-48 55q17 26 53.5 46.5q36.5 20.5 99.5 20.5q58 0 95.5 -23.5q37.5 -23.5 37.5 -65.5q0 -32 -21 -53q-21 -21 -56 -29l0 -1q45 -3 67 -27q22 -24 22 -56q0 -25 -12.5 -45q-12.5 -20 -33 -33.5q-20.5 -13.5 -48 -21t-57.5 -7.5z" />
<glyph unicode="&#191;" horiz-adv-x="473" d="M148 -54q0 -18 7 -33.5q7 -15.5 19.5 -27q12.5 -11.5 30 -18.5q17.5 -7 37.5 -7q42 0 70.5 16q28.5 16 52.5 48l68 -77q-27 -44 -78.5 -73q-51.5 -29 -119.5 -29q-50 0 -89 14q-39 14 -66 38q-27 24 -41 56q-14 32 -14 68q0 49 15 83q15 34 36.5 58.5q21.5 24.5 46.5 43q25 18.5 45.5 37.5q20.5 19 31.5 41.5q11 22.5 6 53.5l105 1q7 -44 -2 -73.5q-9 -29.5 -27 -51q-18 -21.5 -41.5 -38.5q-23.5 -17 -44 -34.5q-20.5 -17.5 -34.5 -40q-14 -22.5 -14 -55.5zt0 0zM333 381q0 -13 -5.5 -26.5q-5.5 -13.5 -15.5 -24q-10 -10.5 -25 -17q-15 -6.5 -33 -6.5q-16 0 -30 6.5q-14 6.5 -23.5 17q-9.5 10.5 -15 24q-5.5 13.5 -5.5 26.5q0 31 20.5 55.5q20.5 24.5 53.5 24.5q37 0 58 -24.5t21 -55.5z" />
<glyph unicode="&#192;" horiz-adv-x="715" d="M303 702h108l296 -702h-131l-73 179h-299l-73 -179h-124zM251 294h205l-102 249zM185 812l43 99l214 -111l-32 -69z" />
<glyph unicode="&#193;" horiz-adv-x="715" d="M303 702h108l296 -702h-131l-73 179h-299l-73 -179h-124zM251 294h205l-102 249zM304 731l-32 69l214 111l43 -99z" />
<glyph unicode="&#194;" horiz-adv-x="715" d="M303 702h108l296 -702h-131l-73 179h-299l-73 -179h-124zM251 294h205l-102 249zM353 904h4l179 -111l-45 -65l-136 71l-136 -71l-41 64z" />
<glyph unicode="&#195;" horiz-adv-x="715" d="M303 702h108l296 -702h-131l-73 179h-299l-73 -179h-124zM251 294h205l-102 249zM176 826q22 25 52.5 39.5q30.5 14.5 59.5 14.5q22 0 40 -5.5q18 -5.5 34 -12q16 -6.5 32.5 -12q16.5 -5.5 36.5 -5.5q17 0 37 6q20 6 39 26l31 -73q-41 -59 -115 -59q-19 0 -36 5.5q-17 5.5 -34 12q-17 6.5 -35.5 12q-18.5 5.5 -39.5 5.5q-33 0 -66 -27z" />
<glyph unicode="&#196;" horiz-adv-x="715" d="M303 702h108l296 -702h-131l-73 179h-299l-73 -179h-124zM251 294h205l-102 249zM167 825q0 29 22.5 45.5q22.5 16.5 54.5 16.5q27 0 49 -16.5q22 -16.5 22 -45.5q0 -32 -22 -49q-22 -17 -49 -17q-32 0 -54.5 17q-22.5 17 -22.5 49zt0 0zM399 825q0 29 22.5 45.5q22.5 16.5 54.5 16.5q28 0 49.5 -16.5q21.5 -16.5 21.5 -45.5q0 -32 -21.5 -49q-21.5 -17 -49.5 -17q-32 0 -54.5 17t-22.5 49z" />
<glyph unicode="&#197;" horiz-adv-x="715" d="M216 800q0 28 11 48.5q11 20.5 29.5 33.5q18.5 13 44 19.5q25.5 6.5 54.5 6.5q30 0 56 -6.5q26 -6.5 45.5 -19.5q19.5 -13 30.5 -33.5q11 -20.5 11 -48.5q0 -41 -23.5 -66.5q-23.5 -25.5 -61.5 -36.5l294 -697h-131l-73 179h-299l-73 -179h-124l294 697q-38 11 -61.5 36q-23.5 25 -23.5 67zt0 0zM251 294h205l-102 249zM301 800q0 -24 16 -35.5q16 -11.5 39 -11.5q24 0 40.5 11.5q16.5 11.5 16.5 35.5q0 24 -16.5 34.5q-16.5 10.5 -40.5 10.5q-23 0 -39 -10.5t-16 -34.5z" />
<glyph unicode="&#198;" horiz-adv-x="951" d="M473 181h-233l-126 -181h-142l503 700h403v-115h-282v-174h252v-115h-252v-181h292v-115h-415zM321 296h152l0 218z" />
<glyph unicode="&#199;" horiz-adv-x="655" d="M291 -105q13 -11 34 -22q21 -11 40 -11q17 0 28 6.5q11 6.5 11 18.5q0 14 -9 21q-9 7 -32 7h-6v77q-70 7 -127.5 36q-57.5 29 -98.5 75.5q-41 46.5 -63.5 109q-22.5 62.5 -22.5 137.5q0 75 23.5 141q23.5 66 69 115q45.5 49 112 77q66.5 28 153.5 28q69 0 123.5 -19.5q54.5 -19.5 89.5 -51.5l-55 -91q-32 21 -68.5 34q-36.5 13 -89.5 13q-49 0 -90.5 -17q-41.5 -17 -72 -49q-30.5 -32 -48 -77.5q-17.5 -45.5 -17.5 -102.5q0 -55 17.5 -100q17.5 -45 49.5 -77.5q32 -32.5 76.5 -50.5q44.5 -18 98.5 -18q45 0 87.5 14q42.5 14 78.5 42l47 -92q-32 -35 -90.5 -56q-58.5 -21 -124.5 -23l0 -24q59 -3 85 -25q26 -22 26 -60q0 -38 -34.5 -63q-34.5 -25 -98.5 -25q-57 0 -89.5 16q-32.5 16 -49.5 29z" />
<glyph unicode="&#200;" horiz-adv-x="575" d="M97 700h405v-115h-282v-174h252v-115h-252v-181h292v-115h-415zM137 812l43 99l214 -111l-32 -69z" />
<glyph unicode="&#201;" horiz-adv-x="575" d="M97 700h405v-115h-282v-174h252v-115h-252v-181h292v-115h-415zM249 731l-32 69l214 111l43 -99z" />
<glyph unicode="&#202;" horiz-adv-x="575" d="M97 700h405v-115h-282v-174h252v-115h-252v-181h292v-115h-415zM296 904h4l179 -111l-45 -65l-136 71l-136 -71l-41 64z" />
<glyph unicode="&#203;" horiz-adv-x="575" d="M97 700h405v-115h-282v-174h252v-115h-252v-181h292v-115h-415zM113 825q0 29 22.5 45.5q22.5 16.5 54.5 16.5q27 0 49 -16.5q22 -16.5 22 -45.5q0 -32 -22 -49q-22 -17 -49 -17q-32 0 -54.5 17q-22.5 17 -22.5 49zt0 0zM345 825q0 29 22.5 45.5q22.5 16.5 54.5 16.5q28 0 49.5 -16.5q21.5 -16.5 21.5 -45.5q0 -32 -21.5 -49q-21.5 -17 -49.5 -17q-32 0 -54.5 17t-22.5 49z" />
<glyph unicode="&#204;" horiz-adv-x="347" d="M112 700h123v-700h-123zM-8 812l43 99l214 -111l-32 -69z" />
<glyph unicode="&#205;" horiz-adv-x="347" d="M112 700h123v-700h-123zM132 731l-32 69l214 111l43 -99z" />
<glyph unicode="&#206;" horiz-adv-x="347" d="M112 700h123v-700h-123zM169 904h4l179 -111l-45 -65l-136 71l-136 -71l-41 64z" />
<glyph unicode="&#207;" horiz-adv-x="347" d="M112 700h123v-700h-123zM-17 825q0 29 22.5 45.5q22.5 16.5 54.5 16.5q27 0 49 -16.5q22 -16.5 22 -45.5q0 -32 -22 -49q-22 -17 -49 -17q-32 0 -54.5 17q-22.5 17 -22.5 49zt0 0zM215 825q0 29 22.5 45.5q22.5 16.5 54.5 16.5q28 0 49.5 -16.5q21.5 -16.5 21.5 -45.5q0 -32 -21.5 -49q-21.5 -17 -49.5 -17q-32 0 -54.5 17t-22.5 49z" />
<glyph unicode="&#208;" horiz-adv-x="749" d="M10 405h95v295h13q16 0 40.5 0.5q24.5 0.5 52 1q27.5 0.5 54 1q26.5 0.5 46.5 0.5q105 0 179.5 -28q74.5 -28 122 -75.5q47.5 -47.5 69.5 -110.5q22 -63 22 -132q0 -74 -25 -139.5q-25 -65.5 -75.5 -114q-50.5 -48.5 -125.5 -77q-75 -28.5 -175 -28.5q-16 0 -37.5 0.5q-21.5 0.5 -46.5 0.5q-25 0 -50.5 0.5q-25.5 0.5 -49.5 0.5h-14v297h-95zM309 588q-23 0 -42 -0.5q-19 -0.5 -40 -2.5l0 -180h177v-108h-177v-182q26 -2 46.5 -2q20.5 0 33.5 0q63 0 113 17.5q50 17.5 84 49q34 31.5 52 76.5q18 45 18 101q0 53 -18 95.5q-18 42.5 -52 72.5q-34 30 -83 46.5t-112 16.5z" />
<glyph unicode="&#209;" horiz-adv-x="792" d="M597 0l-385 485v-485h-115v700h98l385 -487v487h115v-700zM222 826q22 25 52.5 39.5q30.5 14.5 59.5 14.5q22 0 40 -5.5q18 -5.5 34 -12q16 -6.5 32.5 -12q16.5 -5.5 36.5 -5.5q17 0 37 6q20 6 39 26l31 -73q-41 -59 -115 -59q-19 0 -36 5.5q-17 5.5 -34 12q-17 6.5 -35.5 12q-18.5 5.5 -39.5 5.5q-33 0 -66 -27z" />
<glyph unicode="&#210;" horiz-adv-x="819" d="M45 350q0 76 26.5 142q26.5 66 74.5 114.5q48 48.5 115 76.5q67 28 148 28q78 0 145 -26q67 -26 115.5 -73q48.5 -47 76.5 -113.5q28 -66.5 28 -148.5q0 -79 -28 -145q-28 -66 -76.5 -114q-48.5 -48 -115.5 -75q-67 -27 -145 -27q-78 0 -144.5 25.5q-66.5 25.5 -115.5 73q-49 47.5 -76.5 114q-27.5 66.5 -27.5 148.5zt0 0zM175 350q0 -53 18 -98q18 -45 49.5 -78q31.5 -33 74.5 -51.5q43 -18.5 92 -18.5q55 0 98.5 19q43.5 19 74 52q30.5 33 46.5 78q16 45 16 97q0 54 -18 99.5q-18 45.5 -50 78q-32 32.5 -75 50.5q-43 18 -92 18q-50 0 -93 -18q-43 -18 -74.5 -50.5q-31.5 -32.5 -49 -78q-17.5 -45.5 -17.5 -99.5zt0 0zM257 812l43 99l214 -111l-32 -69z" />
<glyph unicode="&#211;" horiz-adv-x="819" d="M45 350q0 76 26.5 142q26.5 66 74.5 114.5q48 48.5 115 76.5q67 28 148 28q78 0 145 -26q67 -26 115.5 -73q48.5 -47 76.5 -113.5q28 -66.5 28 -148.5q0 -79 -28 -145q-28 -66 -76.5 -114q-48.5 -48 -115.5 -75q-67 -27 -145 -27q-78 0 -144.5 25.5q-66.5 25.5 -115.5 73q-49 47.5 -76.5 114q-27.5 66.5 -27.5 148.5zt0 0zM175 350q0 -53 18 -98q18 -45 49.5 -78q31.5 -33 74.5 -51.5q43 -18.5 92 -18.5q55 0 98.5 19q43.5 19 74 52q30.5 33 46.5 78q16 45 16 97q0 54 -18 99.5q-18 45.5 -50 78q-32 32.5 -75 50.5q-43 18 -92 18q-50 0 -93 -18q-43 -18 -74.5 -50.5q-31.5 -32.5 -49 -78q-17.5 -45.5 -17.5 -99.5zt0 0zM364 731l-32 69l214 111l43 -99z" />
<glyph unicode="&#212;" horiz-adv-x="819" d="M45 350q0 76 26.5 142q26.5 66 74.5 114.5q48 48.5 115 76.5q67 28 148 28q78 0 145 -26q67 -26 115.5 -73q48.5 -47 76.5 -113.5q28 -66.5 28 -148.5q0 -79 -28 -145q-28 -66 -76.5 -114q-48.5 -48 -115.5 -75q-67 -27 -145 -27q-78 0 -144.5 25.5q-66.5 25.5 -115.5 73q-49 47.5 -76.5 114q-27.5 66.5 -27.5 148.5zt0 0zM175 350q0 -53 18 -98q18 -45 49.5 -78q31.5 -33 74.5 -51.5q43 -18.5 92 -18.5q55 0 98.5 19q43.5 19 74 52q30.5 33 46.5 78q16 45 16 97q0 54 -18 99.5q-18 45.5 -50 78q-32 32.5 -75 50.5q-43 18 -92 18q-50 0 -93 -18q-43 -18 -74.5 -50.5q-31.5 -32.5 -49 -78q-17.5 -45.5 -17.5 -99.5zt0 0zM408 904h4l179 -111l-45 -65l-136 71l-136 -71l-41 64z" />
<glyph unicode="&#213;" horiz-adv-x="819" d="M45 350q0 76 26.5 142q26.5 66 74.5 114.5q48 48.5 115 76.5q67 28 148 28q78 0 145 -26q67 -26 115.5 -73q48.5 -47 76.5 -113.5q28 -66.5 28 -148.5q0 -79 -28 -145q-28 -66 -76.5 -114q-48.5 -48 -115.5 -75q-67 -27 -145 -27q-78 0 -144.5 25.5q-66.5 25.5 -115.5 73q-49 47.5 -76.5 114q-27.5 66.5 -27.5 148.5zt0 0zM175 350q0 -53 18 -98q18 -45 49.5 -78q31.5 -33 74.5 -51.5q43 -18.5 92 -18.5q55 0 98.5 19q43.5 19 74 52q30.5 33 46.5 78q16 45 16 97q0 54 -18 99.5q-18 45.5 -50 78q-32 32.5 -75 50.5q-43 18 -92 18q-50 0 -93 -18q-43 -18 -74.5 -50.5q-31.5 -32.5 -49 -78q-17.5 -45.5 -17.5 -99.5zt0 0zM224 826q22 25 52.5 39.5q30.5 14.5 59.5 14.5q22 0 40 -5.5q18 -5.5 34 -12q16 -6.5 32.5 -12q16.5 -5.5 36.5 -5.5q17 0 37 6q20 6 39 26l31 -73q-41 -59 -115 -59q-19 0 -36 5.5q-17 5.5 -34 12q-17 6.5 -35.5 12q-18.5 5.5 -39.5 5.5q-33 0 -66 -27z" />
<glyph unicode="&#214;" horiz-adv-x="819" d="M45 350q0 76 26.5 142q26.5 66 74.5 114.5q48 48.5 115 76.5q67 28 148 28q78 0 145 -26q67 -26 115.5 -73q48.5 -47 76.5 -113.5q28 -66.5 28 -148.5q0 -79 -28 -145q-28 -66 -76.5 -114q-48.5 -48 -115.5 -75q-67 -27 -145 -27q-78 0 -144.5 25.5q-66.5 25.5 -115.5 73q-49 47.5 -76.5 114q-27.5 66.5 -27.5 148.5zt0 0zM175 350q0 -53 18 -98q18 -45 49.5 -78q31.5 -33 74.5 -51.5q43 -18.5 92 -18.5q55 0 98.5 19q43.5 19 74 52q30.5 33 46.5 78q16 45 16 97q0 54 -18 99.5q-18 45.5 -50 78q-32 32.5 -75 50.5q-43 18 -92 18q-50 0 -93 -18q-43 -18 -74.5 -50.5q-31.5 -32.5 -49 -78q-17.5 -45.5 -17.5 -99.5zt0 0zM216 825q0 29 22.5 45.5q22.5 16.5 54.5 16.5q27 0 49 -16.5q22 -16.5 22 -45.5q0 -32 -22 -49q-22 -17 -49 -17q-32 0 -54.5 17q-22.5 17 -22.5 49zt0 0zM448 825q0 29 22.5 45.5q22.5 16.5 54.5 16.5q28 0 49.5 -16.5q21.5 -16.5 21.5 -45.5q0 -32 -21.5 -49q-21.5 -17 -49.5 -17q-32 0 -54.5 17t-22.5 49z" />
<glyph unicode="&#215;" horiz-adv-x="596" d="M170 559l128 -128l128 128l71 -71l-128 -128l129 -129l-71 -71l-129 129l-129 -129l-71 71l129 129l-128 128z" />
<glyph unicode="&#216;" horiz-adv-x="819" d="M45 350q0 76 26.5 142q26.5 66 74.5 114.5q48 48.5 115 76.5q67 28 148 28q64 0 120 -18q56 -18 102 -50l40 39l66 -67l-38 -37q35 -45 55 -102q20 -57 20 -126q0 -79 -28 -145q-28 -66 -76.5 -114q-48.5 -48 -115.5 -75q-67 -27 -145 -27q-69 0 -128 19.5q-59 19.5 -106 56.5l-42 -41l-67 68l43 42q-31 44 -47.5 98q-16.5 54 -16.5 118zt0 0zM644 350q0 39 -10 73.5q-10 34.5 -27 63.5l-341 -333q29 -24 65 -37q36 -13 78 -13q55 0 98.5 19q43.5 19 74 52q30.5 33 46.5 78q16 45 16 97zt0 0zM175 350q0 -68 29 -123l338 329q-29 19 -62 29.5q-33 10.5 -71 10.5q-50 0 -93 -18q-43 -18 -74.5 -50.5q-31.5 -32.5 -49 -78t-17.5 -99.5z" />
<glyph unicode="&#217;" horiz-adv-x="751" d="M663 290q0 -80 -23 -137q-23 -57 -61 -93.5q-38 -36.5 -88.5 -53.5q-50.5 -17 -105.5 -17q-65 0 -120 19.5q-55 19.5 -94.5 58q-39.5 38.5 -61.5 96q-22 57.5 -22 134.5v403h123v-377q0 -49 10.5 -89.5q10.5 -40.5 32 -69q21.5 -28.5 54.5 -44.5q33 -16 78 -16q80 0 118 54q38 54 38 157v385h122zM210 812l43 99l214 -111l-32 -69z" />
<glyph unicode="&#218;" horiz-adv-x="751" d="M663 290q0 -80 -23 -137q-23 -57 -61 -93.5q-38 -36.5 -88.5 -53.5q-50.5 -17 -105.5 -17q-65 0 -120 19.5q-55 19.5 -94.5 58q-39.5 38.5 -61.5 96q-22 57.5 -22 134.5v403h123v-377q0 -49 10.5 -89.5q10.5 -40.5 32 -69q21.5 -28.5 54.5 -44.5q33 -16 78 -16q80 0 118 54q38 54 38 157v385h122zM327 731l-32 69l214 111l43 -99z" />
<glyph unicode="&#219;" horiz-adv-x="751" d="M663 290q0 -80 -23 -137q-23 -57 -61 -93.5q-38 -36.5 -88.5 -53.5q-50.5 -17 -105.5 -17q-65 0 -120 19.5q-55 19.5 -94.5 58q-39.5 38.5 -61.5 96q-22 57.5 -22 134.5v403h123v-377q0 -49 10.5 -89.5q10.5 -40.5 32 -69q21.5 -28.5 54.5 -44.5q33 -16 78 -16q80 0 118 54q38 54 38 157v385h122zM370 904h4l179 -111l-45 -65l-136 71l-136 -71l-41 64z" />
<glyph unicode="&#220;" horiz-adv-x="751" d="M663 290q0 -80 -23 -137q-23 -57 -61 -93.5q-38 -36.5 -88.5 -53.5q-50.5 -17 -105.5 -17q-65 0 -120 19.5q-55 19.5 -94.5 58q-39.5 38.5 -61.5 96q-22 57.5 -22 134.5v403h123v-377q0 -49 10.5 -89.5q10.5 -40.5 32 -69q21.5 -28.5 54.5 -44.5q33 -16 78 -16q80 0 118 54q38 54 38 157v385h122zM178 825q0 29 22.5 45.5q22.5 16.5 54.5 16.5q27 0 49 -16.5q22 -16.5 22 -45.5q0 -32 -22 -49q-22 -17 -49 -17q-32 0 -54.5 17q-22.5 17 -22.5 49zt0 0zM410 825q0 29 22.5 45.5q22.5 16.5 54.5 16.5q28 0 49.5 -16.5q21.5 -16.5 21.5 -45.5q0 -32 -21.5 -49q-21.5 -17 -49.5 -17q-32 0 -54.5 17t-22.5 49z" />
<glyph unicode="&#221;" horiz-adv-x="629" d="M375 292v-292h-123v292l-247 408h140l174 -293l172 293h133zM267 731l-32 69l214 111l43 -99z" />
<glyph unicode="&#222;" horiz-adv-x="612" d="M97 0v700h123v-103q6 0 16.5 0.5q10.5 0.5 21.5 0.5q11 0 21.5 0.5q10.5 0.5 16.5 0.5q77 0 129 -19q52 -19 83.5 -50q31.5 -31 45 -71.5q13.5 -40.5 13.5 -83.5q0 -45 -16.5 -86q-16.5 -41 -49 -72.5q-32.5 -31.5 -80 -50.5q-47.5 -19 -110.5 -19q-16 0 -42 1q-26 1 -49 3l0 -151zM298 484q-8 0 -18.5 0q-10.5 0 -21.5 -0.5q-11 -0.5 -21 -1q-10 -0.5 -17 -1.5l0 -214q22 -2 44 -3.5q22 -1.5 43 -1.5q27 0 51 7q24 7 41.5 21q17.5 14 27.5 35.5q10 21.5 10 50.5q0 54 -35.5 81t-103.5 27z" />
<glyph unicode="&#223;" horiz-adv-x="551" d="M398 160q0 22 -12 39q-12 17 -30 31.5q-18 14.5 -39.5 28.5q-21.5 14 -39.5 30.5q-18 16.5 -30 37.5q-12 21 -12 49q0 39 13 63q13 24 28 41.5q15 17.5 28 33q13 15.5 13 37.5q0 23 -18.5 37.5q-18.5 14.5 -46.5 14.5q-39 0 -57 -27q-18 -27 -18 -86v-491h-115v501q0 111 55 161q55 50 152 50q37 0 68 -11q31 -11 53.5 -29.5q22.5 -18.5 35.5 -44q13 -25.5 13 -53.5q0 -38 -12.5 -60q-12.5 -22 -28 -38.5q-15.5 -16.5 -28 -33q-12.5 -16.5 -12.5 -42.5q0 -24 12 -40.5q12 -16.5 30 -30.5q18 -14 39.5 -27.5q21.5 -13.5 39.5 -32.5q18 -19 30 -45.5q12 -26.5 12 -65.5q0 -34 -11.5 -64.5q-11.5 -30.5 -32.5 -53.5q-21 -23 -50.5 -36.5q-29.5 -13.5 -64.5 -13.5q-52 0 -88.5 17.5q-36.5 17.5 -57.5 41.5l37 88q17 -17 36 -28.5q19 -11.5 45 -11.5q27 0 45.5 16t18.5 48z" />
<glyph unicode="&#224;" horiz-adv-x="463" d="M70 418q29 17 71.5 30q42.5 13 87.5 13q50 0 84.5 -12.5q34.5 -12.5 55.5 -36.5q21 -24 30.5 -58.5q9.5 -34.5 9.5 -79.5v-274h-100v52q-18 -26 -52.5 -42q-34.5 -16 -80.5 -16q-62 0 -101.5 36q-39.5 36 -39.5 102q0 37 13 64.5q13 27.5 35 45.5q22 18 52 27q30 9 64 9q30 0 57.5 -8.5q27.5 -8.5 44.5 -20.5q2 57 -15.5 86.5q-17.5 29.5 -68.5 29.5q-39 0 -66 -10q-27 -10 -52 -21zM214 91q36 0 56 13q20 13 31 28l0 46q-29 22 -79 22q-29 0 -50.5 -13.5q-21.5 -13.5 -21.5 -42.5q0 -26 18.5 -39.5q18.5 -13.5 45.5 -13.5zt0 0zM121 660l91 68l104 -163l-68 -48z" />
<glyph unicode="&#225;" horiz-adv-x="463" d="M70 418q29 17 71.5 30q42.5 13 87.5 13q50 0 84.5 -12.5q34.5 -12.5 55.5 -36.5q21 -24 30.5 -58.5q9.5 -34.5 9.5 -79.5v-274h-100v52q-18 -26 -52.5 -42q-34.5 -16 -80.5 -16q-62 0 -101.5 36q-39.5 36 -39.5 102q0 37 13 64.5q13 27.5 35 45.5q22 18 52 27q30 9 64 9q30 0 57.5 -8.5q27.5 -8.5 44.5 -20.5q2 57 -15.5 86.5q-17.5 29.5 -68.5 29.5q-39 0 -66 -10q-27 -10 -52 -21zM214 91q36 0 56 13q20 13 31 28l0 46q-29 22 -79 22q-29 0 -50.5 -13.5q-21.5 -13.5 -21.5 -42.5q0 -26 18.5 -39.5q18.5 -13.5 45.5 -13.5zt0 0zM224 517l-69 48l105 165l90 -68z" />
<glyph unicode="&#226;" horiz-adv-x="463" d="M70 418q29 17 71.5 30q42.5 13 87.5 13q50 0 84.5 -12.5q34.5 -12.5 55.5 -36.5q21 -24 30.5 -58.5q9.5 -34.5 9.5 -79.5v-274h-100v52q-18 -26 -52.5 -42q-34.5 -16 -80.5 -16q-62 0 -101.5 36q-39.5 36 -39.5 102q0 37 13 64.5q13 27.5 35 45.5q22 18 52 27q30 9 64 9q30 0 57.5 -8.5q27.5 -8.5 44.5 -20.5q2 57 -15.5 86.5q-17.5 29.5 -68.5 29.5q-39 0 -66 -10q-27 -10 -52 -21zM214 91q36 0 56 13q20 13 31 28l0 46q-29 22 -79 22q-29 0 -50.5 -13.5q-21.5 -13.5 -21.5 -42.5q0 -26 18.5 -39.5q18.5 -13.5 45.5 -13.5zt0 0zM385 572l-54 -68l-101 81l-102 -79l-52 67l153 133l4 0z" />
<glyph unicode="&#227;" horiz-adv-x="463" d="M70 418q29 17 71.5 30q42.5 13 87.5 13q50 0 84.5 -12.5q34.5 -12.5 55.5 -36.5q21 -24 30.5 -58.5q9.5 -34.5 9.5 -79.5v-274h-100v52q-18 -26 -52.5 -42q-34.5 -16 -80.5 -16q-62 0 -101.5 36q-39.5 36 -39.5 102q0 37 13 64.5q13 27.5 35 45.5q22 18 52 27q30 9 64 9q30 0 57.5 -8.5q27.5 -8.5 44.5 -20.5q2 57 -15.5 86.5q-17.5 29.5 -68.5 29.5q-39 0 -66 -10q-27 -10 -52 -21zM214 91q36 0 56 13q20 13 31 28l0 46q-29 22 -79 22q-29 0 -50.5 -13.5q-21.5 -13.5 -21.5 -42.5q0 -26 18.5 -39.5q18.5 -13.5 45.5 -13.5zt0 0zM55 590q29 36 60.5 52.5q31.5 16.5 60.5 16.5q18 0 32 -6.5q14 -6.5 27.5 -14.5q13.5 -8 27 -14.5q13.5 -6.5 28.5 -6.5q23 0 36 8q13 8 33 23l39 -58q-28 -31 -58 -48q-30 -17 -59 -17q-17 0 -31 6.5q-14 6.5 -27.5 14q-13.5 7.5 -27.5 14q-14 6.5 -31 6.5q-15 0 -31.5 -8.5q-16.5 -8.5 -31.5 -19.5z" />
<glyph unicode="&#228;" horiz-adv-x="463" d="M70 418q29 17 71.5 30q42.5 13 87.5 13q50 0 84.5 -12.5q34.5 -12.5 55.5 -36.5q21 -24 30.5 -58.5q9.5 -34.5 9.5 -79.5v-274h-100v52q-18 -26 -52.5 -42q-34.5 -16 -80.5 -16q-62 0 -101.5 36q-39.5 36 -39.5 102q0 37 13 64.5q13 27.5 35 45.5q22 18 52 27q30 9 64 9q30 0 57.5 -8.5q27.5 -8.5 44.5 -20.5q2 57 -15.5 86.5q-17.5 29.5 -68.5 29.5q-39 0 -66 -10q-27 -10 -52 -21zM214 91q36 0 56 13q20 13 31 28l0 46q-29 22 -79 22q-29 0 -50.5 -13.5q-21.5 -13.5 -21.5 -42.5q0 -26 18.5 -39.5q18.5 -13.5 45.5 -13.5zt0 0zM74 599q0 30 19.5 47q19.5 17 45.5 17q23 0 41.5 -17q18.5 -17 18.5 -47q0 -32 -18.5 -49.5q-18.5 -17.5 -41.5 -17.5q-26 0 -45.5 17.5q-19.5 17.5 -19.5 49.5zt0 0zM273 599q0 30 19 47q19 17 45 17q23 0 41.5 -17q18.5 -17 18.5 -47q0 -32 -18.5 -49.5q-18.5 -17.5 -41.5 -17.5q-26 0 -45 17.5t-19 49.5z" />
<glyph unicode="&#229;" horiz-adv-x="463" d="M70 418q29 17 71.5 30q42.5 13 87.5 13q50 0 84.5 -12.5q34.5 -12.5 55.5 -36.5q21 -24 30.5 -58.5q9.5 -34.5 9.5 -79.5v-274h-100v52q-18 -26 -52.5 -42q-34.5 -16 -80.5 -16q-62 0 -101.5 36q-39.5 36 -39.5 102q0 37 13 64.5q13 27.5 35 45.5q22 18 52 27q30 9 64 9q30 0 57.5 -8.5q27.5 -8.5 44.5 -20.5q2 57 -15.5 86.5q-17.5 29.5 -68.5 29.5q-39 0 -66 -10q-27 -10 -52 -21zM214 91q36 0 56 13q20 13 31 28l0 46q-29 22 -79 22q-29 0 -50.5 -13.5q-21.5 -13.5 -21.5 -42.5q0 -26 18.5 -39.5q18.5 -13.5 45.5 -13.5zt0 0zM111 612q0 25 9.5 46.5q9.5 21.5 26 38q16.5 16.5 40 26q23.5 9.5 50.5 9.5q28 0 51.5 -9.5q23.5 -9.5 40.5 -26q17 -16.5 26.5 -38q9.5 -21.5 9.5 -46.5q0 -24 -9.5 -45.5q-9.5 -21.5 -26.5 -37.5q-17 -16 -40.5 -25.5q-23.5 -9.5 -51.5 -9.5q-27 0 -50.5 9.5q-23.5 9.5 -40 25.5q-16.5 16 -26 37.5q-9.5 21.5 -9.5 45.5zt0 0zM185 613q0 -23 15 -40q15 -17 39 -17q23 0 37.5 17q14.5 17 14.5 40q0 23 -14.5 39.5q-14.5 16.5 -37.5 16.5q-24 0 -39 -16.5t-15 -39.5z" />
<glyph unicode="&#230;" horiz-adv-x="759" d="M229 461q49 0 82.5 -12q33.5 -12 55.5 -35q29 22 67 34.5q38 12.5 83 12.5q43 0 82 -15q39 -15 68 -42.5q29 -27.5 46 -66q17 -38.5 17 -85.5q0 -21 -2 -35q-2 -14 -5 -27l-314 0v-43q14 -28 46 -45q32 -17 77 -17q42 0 75 12.5q33 12.5 53 28.5l32 -81q-35 -28 -79.5 -42q-44.5 -14 -89.5 -14q-108 0 -173 59q-46 -36 -84 -46.5q-38 -10.5 -70 -10.5q-79 0 -120 38.5q-41 38.5 -41 108.5q0 65 45.5 102.5q45.5 37.5 118.5 37.5q26 0 57 -7q31 -7 45 -15q5 53 -16.5 81q-21.5 28 -62.5 28q-44 0 -71 -10q-27 -10 -52 -21l-29 84q29 17 71.5 30q42.5 13 87.5 13zt0 0zM409 267h206q-2 42 -28.5 70q-26.5 28 -78.5 28q-29 0 -56.5 -13.5q-27.5 -13.5 -44.5 -43.5q1 -8 1.5 -16.5q0.5 -8.5 0.5 -17.5zM214 91q30 0 51 12q21 12 35 26l1 57q-36 14 -79 14q-30 0 -51 -15q-21 -15 -21 -41q0 -22 16 -37.5t48 -15.5z" />
<glyph unicode="&#231;" horiz-adv-x="487" d="M173 -112q14 -11 32.5 -18.5q18.5 -7.5 37.5 -7.5q17 0 28 6.5q11 6.5 11 18.5q0 14 -9 21q-9 7 -32 7h-6v78q-91 13 -145 74.5q-54 61.5 -54 157.5q0 49 17 92q17 43 48 75q31 32 74 50.5q43 18.5 94 18.5q56 0 102.5 -14.5q46.5 -14.5 78.5 -46.5l-54 -91q-26 25 -53.5 34.5q-27.5 9.5 -58.5 9.5q-24 0 -46.5 -9q-22.5 -9 -40 -25.5q-17.5 -16.5 -28 -40q-10.5 -23.5 -10.5 -53.5q0 -30 10.5 -54q10.5 -24 28.5 -40.5q18 -16.5 41.5 -25.5q23.5 -9 49.5 -9q37 0 65.5 15.5q28.5 15.5 50.5 39.5l54 -84q-27 -36 -71 -56q-44 -20 -95 -22l0 -24q104 -6 104 -85q0 -38 -34.5 -63q-34.5 -25 -103.5 -25q-48 0 -75.5 14.5q-27.5 14.5 -44.5 27.5z" />
<glyph unicode="&#232;" horiz-adv-x="516" d="M450 45q-34 -29 -79 -42.5q-45 -13.5 -93 -13.5q-54 0 -99 17q-45 17 -76.5 48q-31.5 31 -49 74.5q-17.5 43.5 -17.5 96.5q0 49 16.5 92q16.5 43 47 75q30.5 32 74.5 50.5q44 18.5 100 18.5q43 0 82 -15q39 -15 68 -42.5q29 -27.5 46 -66q17 -38.5 17 -85.5q0 -21 -1.5 -35q-1.5 -14 -5.5 -27l-325 0q8 -51 44.5 -78q36.5 -27 90.5 -27q42 0 74.5 12.5q32.5 12.5 52.5 28.5zM269 365q-52 0 -80.5 -26.5q-28.5 -26.5 -37.5 -71.5l221 0q1 42 -26 70q-27 28 -77 28zt0 0zM161 660l91 68l104 -163l-68 -48z" />
<glyph unicode="&#233;" horiz-adv-x="516" d="M450 45q-34 -29 -79 -42.5q-45 -13.5 -93 -13.5q-54 0 -99 17q-45 17 -76.5 48q-31.5 31 -49 74.5q-17.5 43.5 -17.5 96.5q0 49 16.5 92q16.5 43 47 75q30.5 32 74.5 50.5q44 18.5 100 18.5q43 0 82 -15q39 -15 68 -42.5q29 -27.5 46 -66q17 -38.5 17 -85.5q0 -21 -1.5 -35q-1.5 -14 -5.5 -27l-325 0q8 -51 44.5 -78q36.5 -27 90.5 -27q42 0 74.5 12.5q32.5 12.5 52.5 28.5zM269 365q-52 0 -80.5 -26.5q-28.5 -26.5 -37.5 -71.5l221 0q1 42 -26 70q-27 28 -77 28zt0 0zM274 517l-69 48l105 165l90 -68z" />
<glyph unicode="&#234;" horiz-adv-x="516" d="M450 45q-34 -29 -79 -42.5q-45 -13.5 -93 -13.5q-54 0 -99 17q-45 17 -76.5 48q-31.5 31 -49 74.5q-17.5 43.5 -17.5 96.5q0 49 16.5 92q16.5 43 47 75q30.5 32 74.5 50.5q44 18.5 100 18.5q43 0 82 -15q39 -15 68 -42.5q29 -27.5 46 -66q17 -38.5 17 -85.5q0 -21 -1.5 -35q-1.5 -14 -5.5 -27l-325 0q8 -51 44.5 -78q36.5 -27 90.5 -27q42 0 74.5 12.5q32.5 12.5 52.5 28.5zM269 365q-52 0 -80.5 -26.5q-28.5 -26.5 -37.5 -71.5l221 0q1 42 -26 70q-27 28 -77 28zt0 0zM423 572l-54 -68l-101 81l-102 -79l-52 67l153 133l4 0z" />
<glyph unicode="&#235;" horiz-adv-x="516" d="M450 45q-34 -29 -79 -42.5q-45 -13.5 -93 -13.5q-54 0 -99 17q-45 17 -76.5 48q-31.5 31 -49 74.5q-17.5 43.5 -17.5 96.5q0 49 16.5 92q16.5 43 47 75q30.5 32 74.5 50.5q44 18.5 100 18.5q43 0 82 -15q39 -15 68 -42.5q29 -27.5 46 -66q17 -38.5 17 -85.5q0 -21 -1.5 -35q-1.5 -14 -5.5 -27l-325 0q8 -51 44.5 -78q36.5 -27 90.5 -27q42 0 74.5 12.5q32.5 12.5 52.5 28.5zM269 365q-52 0 -80.5 -26.5q-28.5 -26.5 -37.5 -71.5l221 0q1 42 -26 70q-27 28 -77 28zt0 0zM107 599q0 30 19.5 47q19.5 17 45.5 17q23 0 41.5 -17q18.5 -17 18.5 -47q0 -32 -18.5 -49.5q-18.5 -17.5 -41.5 -17.5q-26 0 -45.5 17.5q-19.5 17.5 -19.5 49.5zt0 0zM306 599q0 30 19 47q19 17 45 17q23 0 41.5 -17q18.5 -17 18.5 -47q0 -32 -18.5 -49.5q-18.5 -17.5 -41.5 -17.5q-26 0 -45 17.5t-19 49.5z" />
<glyph unicode="&#236;" horiz-adv-x="277" d="M81 450h115v-450h-115zM-4 660l91 68l104 -163l-68 -48z" />
<glyph unicode="&#237;" horiz-adv-x="277" d="M81 450h115v-450h-115zM132 517l-69 48l105 165l90 -68z" />
<glyph unicode="&#238;" horiz-adv-x="277" d="M81 450h115v-450h-115zM293 572l-54 -68l-101 81l-102 -79l-52 67l153 133l4 0z" />
<glyph unicode="&#239;" horiz-adv-x="277" d="M81 450h115v-450h-115zM-23 599q0 30 19.5 47q19.5 17 45.5 17q23 0 41.5 -17q18.5 -17 18.5 -47q0 -32 -18.5 -49.5q-18.5 -17.5 -41.5 -17.5q-26 0 -45.5 17.5q-19.5 17.5 -19.5 49.5zt0 0zM176 599q0 30 19 47q19 17 45 17q23 0 41.5 -17q18.5 -17 18.5 -47q0 -32 -18.5 -49.5q-18.5 -17.5 -41.5 -17.5q-26 0 -45 17.5t-19 49.5z" />
<glyph unicode="&#240;" horiz-adv-x="562" d="M156 595l82 29q-42 39 -88 68l129 19q34 -20 67 -48l104 37l32 -102l-59 -21q25 -36 44.5 -75.5q19.5 -39.5 32.5 -80q13 -40.5 19.5 -80.5q6.5 -40 6.5 -77q0 -65 -17.5 -116q-17.5 -51 -49.5 -86.5q-32 -35.5 -77 -54q-45 -18.5 -101 -18.5q-56 0 -101 18q-45 18 -77 49.5q-32 31.5 -49.5 74.5q-17.5 43 -17.5 94q0 51 17.5 94q17.5 43 49.5 74.5q32 31.5 77 49.5q45 18 101 18q29 0 54.5 -12.5q25.5 -12.5 40.5 -32.5q-11 33 -26 63.5q-15 30.5 -35 58.5l-126 -45zM159 225q0 -57 34.5 -93q34.5 -36 87.5 -36q58 0 92.5 46q34.5 46 30.5 127q-11 36 -43 60q-32 24 -80 24q-26 0 -48 -9q-22 -9 -38.5 -25.5q-16.5 -16.5 -26 -40.5t-9.5 -53z" />
<glyph unicode="&#241;" horiz-adv-x="546" d="M64 450h115v-45q20 22 54 37.5q34 15.5 75 15.5q41 0 75 -10.5q34 -10.5 58.5 -33.5q24.5 -23 38 -60q13.5 -37 13.5 -90v-264h-115v244q0 54 -26.5 80q-26.5 26 -74.5 26q-29 0 -53.5 -11.5q-24.5 -11.5 -44.5 -31.5l0 -307h-115zM99 590q29 36 60.5 52.5q31.5 16.5 60.5 16.5q18 0 32 -6.5q14 -6.5 27.5 -14.5q13.5 -8 27 -14.5q13.5 -6.5 28.5 -6.5q23 0 36 8q13 8 33 23l39 -58q-28 -31 -58 -48q-30 -17 -59 -17q-17 0 -31 6.5q-14 6.5 -27.5 14q-13.5 7.5 -27.5 14q-14 6.5 -31 6.5q-15 0 -31.5 -8.5q-16.5 -8.5 -31.5 -19.5z" />
<glyph unicode="&#242;" horiz-adv-x="562" d="M36 225q0 51 17.5 94q17.5 43 49.5 74.5q32 31.5 77 49.5q45 18 101 18q56 0 101 -18q45 -18 77 -49.5q32 -31.5 49.5 -74.5q17.5 -43 17.5 -94q0 -51 -17.5 -94q-17.5 -43 -49.5 -74.5q-32 -31.5 -77 -49.5q-45 -18 -101 -18q-56 0 -101 18q-45 18 -77 49.5q-32 31.5 -49.5 74.5q-17.5 43 -17.5 94zt0 0zM159 225q0 -57 34.5 -93q34.5 -36 87.5 -36q54 0 88.5 35q34.5 35 34.5 94q0 28 -9.5 52q-9.5 24 -26 40.5q-16.5 16.5 -39 26q-22.5 9.5 -48.5 9.5q-26 0 -48 -9q-22 -9 -38.5 -25.5q-16.5 -16.5 -26 -40.5q-9.5 -24 -9.5 -53zt0 0zM157 660l91 68l104 -163l-68 -48z" />
<glyph unicode="&#243;" horiz-adv-x="562" d="M36 225q0 51 17.5 94q17.5 43 49.5 74.5q32 31.5 77 49.5q45 18 101 18q56 0 101 -18q45 -18 77 -49.5q32 -31.5 49.5 -74.5q17.5 -43 17.5 -94q0 -51 -17.5 -94q-17.5 -43 -49.5 -74.5q-32 -31.5 -77 -49.5q-45 -18 -101 -18q-56 0 -101 18q-45 18 -77 49.5q-32 31.5 -49.5 74.5q-17.5 43 -17.5 94zt0 0zM159 225q0 -57 34.5 -93q34.5 -36 87.5 -36q54 0 88.5 35q34.5 35 34.5 94q0 28 -9.5 52q-9.5 24 -26 40.5q-16.5 16.5 -39 26q-22.5 9.5 -48.5 9.5q-26 0 -48 -9q-22 -9 -38.5 -25.5q-16.5 -16.5 -26 -40.5q-9.5 -24 -9.5 -53zt0 0zM280 517l-69 48l105 165l90 -68z" />
<glyph unicode="&#244;" horiz-adv-x="562" d="M36 225q0 51 17.5 94q17.5 43 49.5 74.5q32 31.5 77 49.5q45 18 101 18q56 0 101 -18q45 -18 77 -49.5q32 -31.5 49.5 -74.5q17.5 -43 17.5 -94q0 -51 -17.5 -94q-17.5 -43 -49.5 -74.5q-32 -31.5 -77 -49.5q-45 -18 -101 -18q-56 0 -101 18q-45 18 -77 49.5q-32 31.5 -49.5 74.5q-17.5 43 -17.5 94zt0 0zM159 225q0 -57 34.5 -93q34.5 -36 87.5 -36q54 0 88.5 35q34.5 35 34.5 94q0 28 -9.5 52q-9.5 24 -26 40.5q-16.5 16.5 -39 26q-22.5 9.5 -48.5 9.5q-26 0 -48 -9q-22 -9 -38.5 -25.5q-16.5 -16.5 -26 -40.5q-9.5 -24 -9.5 -53zt0 0zM437 572l-54 -68l-101 81l-102 -79l-52 67l153 133l4 0z" />
<glyph unicode="&#245;" horiz-adv-x="562" d="M36 225q0 51 17.5 94q17.5 43 49.5 74.5q32 31.5 77 49.5q45 18 101 18q56 0 101 -18q45 -18 77 -49.5q32 -31.5 49.5 -74.5q17.5 -43 17.5 -94q0 -51 -17.5 -94q-17.5 -43 -49.5 -74.5q-32 -31.5 -77 -49.5q-45 -18 -101 -18q-56 0 -101 18q-45 18 -77 49.5q-32 31.5 -49.5 74.5q-17.5 43 -17.5 94zt0 0zM159 225q0 -57 34.5 -93q34.5 -36 87.5 -36q54 0 88.5 35q34.5 35 34.5 94q0 28 -9.5 52q-9.5 24 -26 40.5q-16.5 16.5 -39 26q-22.5 9.5 -48.5 9.5q-26 0 -48 -9q-22 -9 -38.5 -25.5q-16.5 -16.5 -26 -40.5q-9.5 -24 -9.5 -53zt0 0zM107 590q29 36 60.5 52.5q31.5 16.5 60.5 16.5q18 0 32 -6.5q14 -6.5 27.5 -14.5q13.5 -8 27 -14.5q13.5 -6.5 28.5 -6.5q23 0 36 8q13 8 33 23l39 -58q-28 -31 -58 -48q-30 -17 -59 -17q-17 0 -31 6.5q-14 6.5 -27.5 14q-13.5 7.5 -27.5 14q-14 6.5 -31 6.5q-15 0 -31.5 -8.5q-16.5 -8.5 -31.5 -19.5z" />
<glyph unicode="&#246;" horiz-adv-x="562" d="M36 225q0 51 17.5 94q17.5 43 49.5 74.5q32 31.5 77 49.5q45 18 101 18q56 0 101 -18q45 -18 77 -49.5q32 -31.5 49.5 -74.5q17.5 -43 17.5 -94q0 -51 -17.5 -94q-17.5 -43 -49.5 -74.5q-32 -31.5 -77 -49.5q-45 -18 -101 -18q-56 0 -101 18q-45 18 -77 49.5q-32 31.5 -49.5 74.5q-17.5 43 -17.5 94zt0 0zM159 225q0 -57 34.5 -93q34.5 -36 87.5 -36q54 0 88.5 35q34.5 35 34.5 94q0 28 -9.5 52q-9.5 24 -26 40.5q-16.5 16.5 -39 26q-22.5 9.5 -48.5 9.5q-26 0 -48 -9q-22 -9 -38.5 -25.5q-16.5 -16.5 -26 -40.5q-9.5 -24 -9.5 -53zt0 0zM126 599q0 30 19.5 47q19.5 17 45.5 17q23 0 41.5 -17q18.5 -17 18.5 -47q0 -32 -18.5 -49.5q-18.5 -17.5 -41.5 -17.5q-26 0 -45.5 17.5q-19.5 17.5 -19.5 49.5zt0 0zM325 599q0 30 19 47q19 17 45 17q23 0 41.5 -17q18.5 -17 18.5 -47q0 -32 -18.5 -49.5q-18.5 -17.5 -41.5 -17.5q-26 0 -45 17.5t-19 49.5z" />
<glyph unicode="&#247;" horiz-adv-x="596" d="M230 557q0 24 17.5 44.5q17.5 20.5 50.5 20.5q32 0 49.5 -20.5q17.5 -20.5 17.5 -44.5q0 -26 -17.5 -48q-17.5 -22 -49.5 -22q-33 0 -50.5 22q-17.5 22 -17.5 48zt0 0zM230 164q0 23 17.5 44.5q17.5 21.5 50.5 21.5q15 0 27.5 -6q12.5 -6 21.5 -15.5q9 -9.5 13.5 -21q4.5 -11.5 4.5 -23.5q0 -27 -17.5 -48.5q-17.5 -21.5 -49.5 -21.5q-33 0 -50.5 21.5q-17.5 21.5 -17.5 48.5zt0 0zM66 410h464v-100l-464 0z" />
<glyph unicode="&#248;" horiz-adv-x="577" d="M84 81q-48 60 -48 144q0 51 18.5 94q18.5 43 52 74.5q33.5 31.5 80 49.5q46.5 18 102.5 18q47 0 86.5 -12.5q39.5 -12.5 71.5 -35.5l39 36l41 -48l-35 -32q23 -29 36 -65.5q13 -36.5 13 -78.5q0 -51 -18.5 -94q-18.5 -43 -51.5 -74.5q-33 -31.5 -79.5 -49.5q-46.5 -18 -102.5 -18q-47 0 -87 12q-40 12 -72 35l-39 -36l-42 49zM419 225q0 36 -15 63l-188 -173q32 -19 73 -19q59 0 94.5 35q35.5 35 35.5 94zt0 0zM159 225q0 -35 14 -63l188 172q-32 19 -72 19q-57 0 -93.5 -34.5t-36.5 -93.5z" />
<glyph unicode="&#249;" horiz-adv-x="535" d="M471 0h-115v55q-20 -25 -55.5 -45.5q-35.5 -20.5 -88.5 -20.5q-33 0 -62 11q-29 11 -50 33.5q-21 22.5 -33.5 58q-12.5 35.5 -12.5 83.5v275h115v-251q0 -45 19 -74q19 -29 67 -29q29 0 55 14.5q26 14.5 46 40.5l0 299h115zM139 660l91 68l104 -163l-68 -48z" />
<glyph unicode="&#250;" horiz-adv-x="535" d="M471 0h-115v55q-20 -25 -55.5 -45.5q-35.5 -20.5 -88.5 -20.5q-33 0 -62 11q-29 11 -50 33.5q-21 22.5 -33.5 58q-12.5 35.5 -12.5 83.5v275h115v-251q0 -45 19 -74q19 -29 67 -29q29 0 55 14.5q26 14.5 46 40.5l0 299h115zM270 517l-69 48l105 165l90 -68z" />
<glyph unicode="&#251;" horiz-adv-x="535" d="M471 0h-115v55q-20 -25 -55.5 -45.5q-35.5 -20.5 -88.5 -20.5q-33 0 -62 11q-29 11 -50 33.5q-21 22.5 -33.5 58q-12.5 35.5 -12.5 83.5v275h115v-251q0 -45 19 -74q19 -29 67 -29q29 0 55 14.5q26 14.5 46 40.5l0 299h115zM421 572l-54 -68l-101 81l-102 -79l-52 67l153 133l4 0z" />
<glyph unicode="&#252;" horiz-adv-x="535" d="M471 0h-115v55q-20 -25 -55.5 -45.5q-35.5 -20.5 -88.5 -20.5q-33 0 -62 11q-29 11 -50 33.5q-21 22.5 -33.5 58q-12.5 35.5 -12.5 83.5v275h115v-251q0 -45 19 -74q19 -29 67 -29q29 0 55 14.5q26 14.5 46 40.5l0 299h115zM103 599q0 30 19.5 47q19.5 17 45.5 17q23 0 41.5 -17q18.5 -17 18.5 -47q0 -32 -18.5 -49.5q-18.5 -17.5 -41.5 -17.5q-26 0 -45.5 17.5q-19.5 17.5 -19.5 49.5zt0 0zM302 599q0 30 19 47q19 17 45 17q23 0 41.5 -17q18.5 -17 18.5 -47q0 -32 -18.5 -49.5q-18.5 -17.5 -41.5 -17.5q-26 0 -45 17.5t-19 49.5z" />
<glyph unicode="&#253;" horiz-adv-x="503" d="M321 0q-25 -60 -46 -99q-21 -39 -41 -61.5q-20 -22.5 -41 -31q-21 -8.5 -46 -8.5q-31 0 -54 10.5q-23 10.5 -43 24.5l37 87q9 -5 21 -10.5q12 -5.5 26 -5.5q41 0 69 70l10 24l-208 450h138l105 -246q7 -17 12 -32.5q5 -15.5 10 -32.5q3 16 6.5 32.5q3.5 16.5 9.5 33.5l81 245h131zM246 517l-69 48l105 165l90 -68z" />
<glyph unicode="&#254;" horiz-adv-x="558" d="M64 700h115v-286q23 20 58.5 33.5q35.5 13.5 80.5 13.5q46 0 84 -17q38 -17 64.5 -47.5q26.5 -30.5 41 -72.5q14.5 -42 14.5 -92q0 -51 -17 -95.5q-17 -44.5 -48 -77.5q-31 -33 -75 -51.5q-44 -18.5 -98 -18.5q-30 0 -57.5 5.5q-27.5 5.5 -47.5 16.5l0 -211h-115zM282 353q-29 0 -55.5 -13q-26.5 -13 -47.5 -36l0 -182q23 -15 44.5 -20.5q21.5 -5.5 50.5 -5.5q30 0 53.5 10q23.5 10 39.5 28q16 18 24.5 42.5q8.5 24.5 8.5 52.5q0 54 -30.5 89t-87.5 35z" />
<glyph unicode="&#255;" horiz-adv-x="503" d="M321 0q-25 -60 -46 -99q-21 -39 -41 -61.5q-20 -22.5 -41 -31q-21 -8.5 -46 -8.5q-31 0 -54 10.5q-23 10.5 -43 24.5l37 87q9 -5 21 -10.5q12 -5.5 26 -5.5q41 0 69 70l10 24l-208 450h138l105 -246q7 -17 12 -32.5q5 -15.5 10 -32.5q3 16 6.5 32.5q3.5 16.5 9.5 33.5l81 245h131zM97 599q0 30 19.5 47q19.5 17 45.5 17q23 0 41.5 -17q18.5 -17 18.5 -47q0 -32 -18.5 -49.5q-18.5 -17.5 -41.5 -17.5q-26 0 -45.5 17.5q-19.5 17.5 -19.5 49.5zt0 0zM296 599q0 30 19 47q19 17 45 17q23 0 41.5 -17q18.5 -17 18.5 -47q0 -32 -18.5 -49.5q-18.5 -17.5 -41.5 -17.5q-26 0 -45 17.5t-19 49.5z" />
<glyph unicode="&#256;" horiz-adv-x="715" d="M303 702h108l296 -702h-131l-73 179h-299l-73 -179h-124zM251 294h205l-102 249zM202 852h309v-92l-309 0z" />
<glyph unicode="&#257;" horiz-adv-x="463" d="M70 418q29 17 71.5 30q42.5 13 87.5 13q50 0 84.5 -12.5q34.5 -12.5 55.5 -36.5q21 -24 30.5 -58.5q9.5 -34.5 9.5 -79.5v-274h-100v52q-18 -26 -52.5 -42q-34.5 -16 -80.5 -16q-62 0 -101.5 36q-39.5 36 -39.5 102q0 37 13 64.5q13 27.5 35 45.5q22 18 52 27q30 9 64 9q30 0 57.5 -8.5q27.5 -8.5 44.5 -20.5q2 57 -15.5 86.5q-17.5 29.5 -68.5 29.5q-39 0 -66 -10q-27 -10 -52 -21zM214 91q36 0 56 13q20 13 31 28l0 46q-29 22 -79 22q-29 0 -50.5 -13.5q-21.5 -13.5 -21.5 -42.5q0 -26 18.5 -39.5q18.5 -13.5 45.5 -13.5zt0 0zM96 642h279v-92l-279 0z" />
<glyph unicode="&#258;" horiz-adv-x="715" d="M303 702h108l296 -702h-131l-73 179h-299l-73 -179h-124zM251 294h205l-102 249zM219 900q9 -10 22 -21q13 -11 30 -20.5q17 -9.5 39.5 -15.5q22.5 -6 51.5 -6q50 0 85 20q35 20 55 43l43 -60q-12 -20 -31 -38.5q-19 -18.5 -42.5 -33q-23.5 -14.5 -51.5 -23q-28 -8.5 -58 -8.5q-35 0 -65 9.5q-30 9.5 -55 24.5q-25 15 -43.5 33.5q-18.5 18.5 -29.5 36.5z" />
<glyph unicode="&#259;" horiz-adv-x="463" d="M70 418q29 17 71.5 30q42.5 13 87.5 13q50 0 84.5 -12.5q34.5 -12.5 55.5 -36.5q21 -24 30.5 -58.5q9.5 -34.5 9.5 -79.5v-274h-100v52q-18 -26 -52.5 -42q-34.5 -16 -80.5 -16q-62 0 -101.5 36q-39.5 36 -39.5 102q0 37 13 64.5q13 27.5 35 45.5q22 18 52 27q30 9 64 9q30 0 57.5 -8.5q27.5 -8.5 44.5 -20.5q2 57 -15.5 86.5q-17.5 29.5 -68.5 29.5q-39 0 -66 -10q-27 -10 -52 -21zM214 91q36 0 56 13q20 13 31 28l0 46q-29 22 -79 22q-29 0 -50.5 -13.5q-21.5 -13.5 -21.5 -42.5q0 -26 18.5 -39.5q18.5 -13.5 45.5 -13.5zt0 0zM120 681q8 -9 18 -18.5q10 -9.5 23.5 -18q13.5 -8.5 30.5 -14q17 -5.5 38 -5.5q38 0 67 17.5q29 17.5 45 37.5l40 -56q-10 -15 -24 -31.5q-14 -16.5 -32.5 -30q-18.5 -13.5 -43.5 -22q-25 -8.5 -57 -8.5q-33 0 -58.5 10q-25.5 10 -45 24.5q-19.5 14.5 -32.5 30q-13 15.5 -20 27.5z" />
<glyph unicode="&#260;" horiz-adv-x="715" d="M704 -168q-13 -13 -42 -22.5q-29 -9.5 -61 -9.5q-26 0 -50 5q-24 5 -42.5 16.5q-18.5 11.5 -30 29q-11.5 17.5 -11.5 43.5q0 42 31 68.5q31 26.5 77 40.5l-72 176h-299l-73 -179h-124l296 702h108l296 -702h-21q-22 0 -41 -6q-19 -6 -33 -16q-14 -10 -22 -22q-8 -12 -8 -24q0 -23 15 -31.5q15 -8.5 30 -8.5q12 0 20.5 2q8.5 2 21.5 8zM251 294h205l-102 249z" />
<glyph unicode="&#261;" horiz-adv-x="463" d="M422 -168q-13 -13 -42 -22.5q-29 -9.5 -61 -9.5q-26 0 -50 5q-24 5 -42.5 16.5q-18.5 11.5 -30 29q-11.5 17.5 -11.5 43.5q0 44 36.5 72q36.5 28 87.5 41l0 45q-18 -26 -52.5 -42q-34.5 -16 -80.5 -16q-62 0 -101.5 36q-39.5 36 -39.5 102q0 37 13 64.5q13 27.5 35 45.5q22 18 52 27q30 9 64 9q30 0 57.5 -8.5q27.5 -8.5 44.5 -20.5q2 57 -15.5 86.5q-17.5 29.5 -68.5 29.5q-39 0 -66 -10q-27 -10 -52 -21l-29 84q29 17 71.5 30q42.5 13 87.5 13q50 0 84.5 -12.5q34.5 -12.5 55.5 -36.5q21 -24 30.5 -58.5q9.5 -34.5 9.5 -79.5v-274q-23 0 -42.5 -6q-19.5 -6 -34.5 -15.5q-15 -9.5 -23.5 -21.5q-8.5 -12 -8.5 -25q0 -23 15 -31.5q15 -8.5 30 -8.5q12 0 20.5 2q8.5 2 21.5 8zM214 91q36 0 56 13q20 13 31 28l0 46q-29 22 -79 22q-29 0 -50.5 -13.5q-21.5 -13.5 -21.5 -42.5q0 -26 18.5 -39.5t45.5 -13.5z" />
<glyph unicode="&#262;" horiz-adv-x="655" d="M630 68q-17 -18 -41 -32.5q-24 -14.5 -53.5 -25q-29.5 -10.5 -62.5 -16q-33 -5.5 -67 -5.5q-80 0 -146.5 25.5q-66.5 25.5 -114 73q-47.5 47.5 -74 114q-26.5 66.5 -26.5 148.5q0 75 23.5 141q23.5 66 69 115q45.5 49 112 77q66.5 28 153.5 28q69 0 123.5 -19.5q54.5 -19.5 89.5 -51.5l-55 -91q-32 21 -68.5 34q-36.5 13 -89.5 13q-49 0 -90.5 -17q-41.5 -17 -72 -49q-30.5 -32 -48 -77.5q-17.5 -45.5 -17.5 -102.5q0 -55 17.5 -100q17.5 -45 49.5 -77.5q32 -32.5 76.5 -50.5q44.5 -18 98.5 -18q45 0 87.5 14q42.5 14 78.5 42zM332 731l-32 69l214 111l43 -99z" />
<glyph unicode="&#263;" horiz-adv-x="487" d="M459 67q-29 -38 -76.5 -58q-47.5 -20 -102.5 -20q-55 0 -100 17q-45 17 -77 48q-32 31 -49.5 74.5q-17.5 43.5 -17.5 96.5q0 49 17 92q17 43 48 75q31 32 74 50.5q43 18.5 94 18.5q56 0 102.5 -14.5q46.5 -14.5 78.5 -46.5l-54 -91q-26 25 -53.5 34.5q-27.5 9.5 -58.5 9.5q-24 0 -46.5 -9q-22.5 -9 -40 -25.5q-17.5 -16.5 -28 -40q-10.5 -23.5 -10.5 -53.5q0 -30 10.5 -54q10.5 -24 28.5 -40.5q18 -16.5 41.5 -25.5q23.5 -9 49.5 -9q37 0 65.5 15.5q28.5 15.5 50.5 39.5zM265 517l-69 48l105 165l90 -68z" />
<glyph unicode="&#264;" horiz-adv-x="655" d="M630 68q-17 -18 -41 -32.5q-24 -14.5 -53.5 -25q-29.5 -10.5 -62.5 -16q-33 -5.5 -67 -5.5q-80 0 -146.5 25.5q-66.5 25.5 -114 73q-47.5 47.5 -74 114q-26.5 66.5 -26.5 148.5q0 75 23.5 141q23.5 66 69 115q45.5 49 112 77q66.5 28 153.5 28q69 0 123.5 -19.5q54.5 -19.5 89.5 -51.5l-55 -91q-32 21 -68.5 34q-36.5 13 -89.5 13q-49 0 -90.5 -17q-41.5 -17 -72 -49q-30.5 -32 -48 -77.5q-17.5 -45.5 -17.5 -102.5q0 -55 17.5 -100q17.5 -45 49.5 -77.5q32 -32.5 76.5 -50.5q44.5 -18 98.5 -18q45 0 87.5 14q42.5 14 78.5 42zM383 904h4l179 -111l-45 -65l-136 71l-136 -71l-41 64z" />
<glyph unicode="&#265;" horiz-adv-x="487" d="M459 67q-29 -38 -76.5 -58q-47.5 -20 -102.5 -20q-55 0 -100 17q-45 17 -77 48q-32 31 -49.5 74.5q-17.5 43.5 -17.5 96.5q0 49 17 92q17 43 48 75q31 32 74 50.5q43 18.5 94 18.5q56 0 102.5 -14.5q46.5 -14.5 78.5 -46.5l-54 -91q-26 25 -53.5 34.5q-27.5 9.5 -58.5 9.5q-24 0 -46.5 -9q-22.5 -9 -40 -25.5q-17.5 -16.5 -28 -40q-10.5 -23.5 -10.5 -53.5q0 -30 10.5 -54q10.5 -24 28.5 -40.5q18 -16.5 41.5 -25.5q23.5 -9 49.5 -9q37 0 65.5 15.5q28.5 15.5 50.5 39.5zM431 572l-54 -68l-101 81l-102 -79l-52 67l153 133l4 0z" />
<glyph unicode="&#266;" horiz-adv-x="655" d="M630 68q-17 -18 -41 -32.5q-24 -14.5 -53.5 -25q-29.5 -10.5 -62.5 -16q-33 -5.5 -67 -5.5q-80 0 -146.5 25.5q-66.5 25.5 -114 73q-47.5 47.5 -74 114q-26.5 66.5 -26.5 148.5q0 75 23.5 141q23.5 66 69 115q45.5 49 112 77q66.5 28 153.5 28q69 0 123.5 -19.5q54.5 -19.5 89.5 -51.5l-55 -91q-32 21 -68.5 34q-36.5 13 -89.5 13q-49 0 -90.5 -17q-41.5 -17 -72 -49q-30.5 -32 -48 -77.5q-17.5 -45.5 -17.5 -102.5q0 -55 17.5 -100q17.5 -45 49.5 -77.5q32 -32.5 76.5 -50.5q44.5 -18 98.5 -18q45 0 87.5 14q42.5 14 78.5 42zM304 831q0 33 23.5 52q23.5 19 55.5 19q29 0 52 -19q23 -19 23 -52q0 -36 -23 -55.5q-23 -19.5 -52 -19.5q-32 0 -55.5 19.5t-23.5 55.5z" />
<glyph unicode="&#267;" horiz-adv-x="487" d="M459 67q-29 -38 -76.5 -58q-47.5 -20 -102.5 -20q-55 0 -100 17q-45 17 -77 48q-32 31 -49.5 74.5q-17.5 43.5 -17.5 96.5q0 49 17 92q17 43 48 75q31 32 74 50.5q43 18.5 94 18.5q56 0 102.5 -14.5q46.5 -14.5 78.5 -46.5l-54 -91q-26 25 -53.5 34.5q-27.5 9.5 -58.5 9.5q-24 0 -46.5 -9q-22.5 -9 -40 -25.5q-17.5 -16.5 -28 -40q-10.5 -23.5 -10.5 -53.5q0 -30 10.5 -54q10.5 -24 28.5 -40.5q18 -16.5 41.5 -25.5q23.5 -9 49.5 -9q37 0 65.5 15.5q28.5 15.5 50.5 39.5zM203 612q0 31 21.5 49q21.5 18 50.5 18q25 0 45.5 -18q20.5 -18 20.5 -49q0 -35 -20.5 -53.5q-20.5 -18.5 -45.5 -18.5q-29 0 -50.5 18.5t-21.5 53.5z" />
<glyph unicode="&#268;" horiz-adv-x="655" d="M630 68q-17 -18 -41 -32.5q-24 -14.5 -53.5 -25q-29.5 -10.5 -62.5 -16q-33 -5.5 -67 -5.5q-80 0 -146.5 25.5q-66.5 25.5 -114 73q-47.5 47.5 -74 114q-26.5 66.5 -26.5 148.5q0 75 23.5 141q23.5 66 69 115q45.5 49 112 77q66.5 28 153.5 28q69 0 123.5 -19.5q54.5 -19.5 89.5 -51.5l-55 -91q-32 21 -68.5 34q-36.5 13 -89.5 13q-49 0 -90.5 -17q-41.5 -17 -72 -49q-30.5 -32 -48 -77.5q-17.5 -45.5 -17.5 -102.5q0 -55 17.5 -100q17.5 -45 49.5 -77.5q32 -32.5 76.5 -50.5q44.5 -18 98.5 -18q45 0 87.5 14q42.5 14 78.5 42zM208 846l45 65l136 -79l135 79l41 -64l-174 -112l-4 0z" />
<glyph unicode="&#269;" horiz-adv-x="487" d="M459 67q-29 -38 -76.5 -58q-47.5 -20 -102.5 -20q-55 0 -100 17q-45 17 -77 48q-32 31 -49.5 74.5q-17.5 43.5 -17.5 96.5q0 49 17 92q17 43 48 75q31 32 74 50.5q43 18.5 94 18.5q56 0 102.5 -14.5q46.5 -14.5 78.5 -46.5l-54 -91q-26 25 -53.5 34.5q-27.5 9.5 -58.5 9.5q-24 0 -46.5 -9q-22.5 -9 -40 -25.5q-17.5 -16.5 -28 -40q-10.5 -23.5 -10.5 -53.5q0 -30 10.5 -54q10.5 -24 28.5 -40.5q18 -16.5 41.5 -25.5q23.5 -9 49.5 -9q37 0 65.5 15.5q28.5 15.5 50.5 39.5zM115 643l54 68l101 -92l102 90l52 -67l-153 -133l-4 0z" />
<glyph unicode="&#270;" horiz-adv-x="741" d="M97 700h13q16 0 41 0.5q25 0.5 52.5 1q27.5 0.5 54 1q26.5 0.5 45.5 0.5q105 0 179.5 -28q74.5 -28 122 -75.5q47.5 -47.5 69.5 -110.5q22 -63 22 -132q0 -74 -25 -139.5q-25 -65.5 -75.5 -114q-50.5 -48.5 -125.5 -77q-75 -28.5 -175 -28.5q-16 0 -37.5 0.5q-21.5 0.5 -46 0.5q-24.5 0 -50.5 0.5q-26 0.5 -50 0.5h-14zM301 588q-22 0 -41 -0.5q-19 -0.5 -40 -2.5l0 -470q26 -2 46 -2q20 0 33 0q63 0 113 17.5q50 17.5 84 49q34 31.5 52 76.5q18 45 18 101q0 53 -18 95.5q-18 42.5 -52 72.5q-34 30 -83 46.5q-49 16.5 -112 16.5zt0 0zM156 846l45 65l136 -79l135 79l41 -64l-174 -112l-4 0z" />
<glyph unicode="&#271;" horiz-adv-x="556" d="M377 47q-23 -24 -54 -39.5q-31 -15.5 -75 -15.5q-48 0 -87.5 16.5q-39.5 16.5 -67 46.5q-27.5 30 -42.5 72q-15 42 -15 93q0 53 18 97.5q18 44.5 51 76.5q33 32 78.5 49.5q45.5 17.5 99.5 17.5q30 0 52.5 -5.5q22.5 -5.5 41.5 -16.5l0 261h115v-700h-115zM272 99q32 0 58.5 13q26.5 13 46.5 33l0 181q-44 27 -89 27q-26 0 -49 -8.5q-23 -8.5 -41 -25q-18 -16.5 -28.5 -40.5q-10.5 -24 -10.5 -55q0 -30 9 -53.5q9 -23.5 24.5 -39q15.5 -15.5 36 -24q20.5 -8.5 43.5 -8.5zt0 0zM675 700q4 -8 5 -17.5q1 -9.5 1 -17.5q0 -35 -9 -63q-9 -28 -23 -49.5q-14 -21.5 -31.5 -36.5q-17.5 -15 -35.5 -25l-53 50q21 20 33 49q12 29 12 61q0 16 -3 27q-3 11 -8 22z" />
<glyph unicode="&#272;" horiz-adv-x="749" d="M10 405h95v295h13q16 0 40.5 0.5q24.5 0.5 52 1q27.5 0.5 54 1q26.5 0.5 46.5 0.5q105 0 179.5 -28q74.5 -28 122 -75.5q47.5 -47.5 69.5 -110.5q22 -63 22 -132q0 -74 -25 -139.5q-25 -65.5 -75.5 -114q-50.5 -48.5 -125.5 -77q-75 -28.5 -175 -28.5q-16 0 -37.5 0.5q-21.5 0.5 -46.5 0.5q-25 0 -50.5 0.5q-25.5 0.5 -49.5 0.5h-14v297h-95zM309 588q-23 0 -42 -0.5q-19 -0.5 -40 -2.5l0 -180h177v-108h-177v-182q26 -2 46.5 -2q20.5 0 33.5 0q63 0 113 17.5q50 17.5 84 49q34 31.5 52 76.5q18 45 18 101q0 53 -18 95.5q-18 42.5 -52 72.5q-34 30 -83 46.5t-112 16.5z" />
<glyph unicode="&#273;" horiz-adv-x="556" d="M247 613h130v87h115v-87h79v-93h-79v-520h-115v47q-23 -24 -54 -39.5q-31 -15.5 -75 -15.5q-48 0 -87.5 16.5q-39.5 16.5 -67 46.5q-27.5 30 -42.5 72q-15 42 -15 93q0 53 18 97.5q18 44.5 51 76.5q33 32 78.5 49.5q45.5 17.5 99.5 17.5q30 0 52.5 -5.5q22.5 -5.5 41.5 -16.5l0 81h-130zM272 99q32 0 58.5 13q26.5 13 46.5 33l0 181q-44 27 -89 27q-26 0 -49 -8.5q-23 -8.5 -41 -25q-18 -16.5 -28.5 -40.5q-10.5 -24 -10.5 -55q0 -30 9 -53.5q9 -23.5 24.5 -39q15.5 -15.5 36 -24t43.5 -8.5z" />
<glyph unicode="&#274;" horiz-adv-x="575" d="M97 700h405v-115h-282v-174h252v-115h-252v-181h292v-115h-415zM145 852h309v-92l-309 0z" />
<glyph unicode="&#275;" horiz-adv-x="516" d="M450 45q-34 -29 -79 -42.5q-45 -13.5 -93 -13.5q-54 0 -99 17q-45 17 -76.5 48q-31.5 31 -49 74.5q-17.5 43.5 -17.5 96.5q0 49 16.5 92q16.5 43 47 75q30.5 32 74.5 50.5q44 18.5 100 18.5q43 0 82 -15q39 -15 68 -42.5q29 -27.5 46 -66q17 -38.5 17 -85.5q0 -21 -1.5 -35q-1.5 -14 -5.5 -27l-325 0q8 -51 44.5 -78q36.5 -27 90.5 -27q42 0 74.5 12.5q32.5 12.5 52.5 28.5zM269 365q-52 0 -80.5 -26.5q-28.5 -26.5 -37.5 -71.5l221 0q1 42 -26 70q-27 28 -77 28zt0 0zM125 642h279v-92l-279 0z" />
<glyph unicode="&#278;" horiz-adv-x="575" d="M97 700h405v-115h-282v-174h252v-115h-252v-181h292v-115h-415zM227 831q0 33 23.5 52q23.5 19 55.5 19q29 0 52 -19q23 -19 23 -52q0 -36 -23 -55.5q-23 -19.5 -52 -19.5q-32 0 -55.5 19.5t-23.5 55.5z" />
<glyph unicode="&#279;" horiz-adv-x="516" d="M450 45q-34 -29 -79 -42.5q-45 -13.5 -93 -13.5q-54 0 -99 17q-45 17 -76.5 48q-31.5 31 -49 74.5q-17.5 43.5 -17.5 96.5q0 49 16.5 92q16.5 43 47 75q30.5 32 74.5 50.5q44 18.5 100 18.5q43 0 82 -15q39 -15 68 -42.5q29 -27.5 46 -66q17 -38.5 17 -85.5q0 -21 -1.5 -35q-1.5 -14 -5.5 -27l-325 0q8 -51 44.5 -78q36.5 -27 90.5 -27q42 0 74.5 12.5q32.5 12.5 52.5 28.5zM269 365q-52 0 -80.5 -26.5q-28.5 -26.5 -37.5 -71.5l221 0q1 42 -26 70q-27 28 -77 28zt0 0zM197 612q0 31 21.5 49q21.5 18 50.5 18q25 0 45.5 -18q20.5 -18 20.5 -49q0 -35 -20.5 -53.5q-20.5 -18.5 -45.5 -18.5q-29 0 -50.5 18.5t-21.5 53.5z" />
<glyph unicode="&#280;" horiz-adv-x="575" d="M97 700h405v-115h-282v-174h252v-115h-252v-181h292v-115h-5q-22 0 -41 -6q-19 -6 -33 -16q-14 -10 -22 -22q-8 -12 -8 -24q0 -23 15 -31.5q15 -8.5 30 -8.5q12 0 20.5 2q8.5 2 21.5 8l35 -70q-13 -13 -42 -22.5q-29 -9.5 -61 -9.5q-26 0 -50 5q-24 5 -42.5 16.5q-18.5 11.5 -30 29q-11.5 17.5 -11.5 43.5q0 39 28.5 65.5q28.5 26.5 70.5 40.5l-290 0z" />
<glyph unicode="&#281;" horiz-adv-x="516" d="M450 45q-13 -11 -27.5 -19.5q-14.5 -8.5 -30.5 -15.5q-31 -19 -48.5 -38.5q-17.5 -19.5 -17.5 -39.5q0 -23 15 -31.5q15 -8.5 30 -8.5q12 0 20.5 2q8.5 2 21.5 8l35 -70q-13 -13 -42 -22.5q-29 -9.5 -61 -9.5q-26 0 -50 5q-24 5 -42.5 16.5q-18.5 11.5 -30 29q-11.5 17.5 -11.5 43.5q0 29 20 52.5q20 23.5 55 42.5l-8 0q-54 0 -99 17q-45 17 -76.5 48q-31.5 31 -49 74.5q-17.5 43.5 -17.5 96.5q0 49 16.5 92q16.5 43 47 75q30.5 32 74.5 50.5q44 18.5 100 18.5q43 0 82 -15q39 -15 68 -42.5q29 -27.5 46 -66q17 -38.5 17 -85.5q0 -21 -1.5 -35q-1.5 -14 -5.5 -27l-325 0q8 -51 44.5 -78q36.5 -27 90.5 -27q42 0 74.5 12.5q32.5 12.5 52.5 28.5zM269 365q-52 0 -80.5 -26.5q-28.5 -26.5 -37.5 -71.5l221 0q1 42 -26 70t-77 28z" />
<glyph unicode="&#282;" horiz-adv-x="575" d="M97 700h405v-115h-282v-174h252v-115h-252v-181h292v-115h-415zM128 846l45 65l136 -79l135 79l41 -64l-174 -112l-4 0z" />
<glyph unicode="&#283;" horiz-adv-x="516" d="M450 45q-34 -29 -79 -42.5q-45 -13.5 -93 -13.5q-54 0 -99 17q-45 17 -76.5 48q-31.5 31 -49 74.5q-17.5 43.5 -17.5 96.5q0 49 16.5 92q16.5 43 47 75q30.5 32 74.5 50.5q44 18.5 100 18.5q43 0 82 -15q39 -15 68 -42.5q29 -27.5 46 -66q17 -38.5 17 -85.5q0 -21 -1.5 -35q-1.5 -14 -5.5 -27l-325 0q8 -51 44.5 -78q36.5 -27 90.5 -27q42 0 74.5 12.5q32.5 12.5 52.5 28.5zM269 365q-52 0 -80.5 -26.5q-28.5 -26.5 -37.5 -71.5l221 0q1 42 -26 70q-27 28 -77 28zt0 0zM119 643l54 68l101 -92l102 90l52 -67l-153 -133l-4 0z" />
<glyph unicode="&#284;" horiz-adv-x="727" d="M388 377h284v-290q-23 -23 -54.5 -41.5q-31.5 -18.5 -67 -31q-35.5 -12.5 -71.5 -19q-36 -6.5 -69 -6.5q-86 0 -153.5 25.5q-67.5 25.5 -114.5 73q-47 47.5 -72 114q-25 66.5 -25 148.5q0 75 24.5 141q24.5 66 70 115q45.5 49 110 77q64.5 28 144.5 28q75 0 128.5 -18.5q53.5 -18.5 96.5 -52.5l-52 -98q-26 25 -69 39.5q-43 14.5 -89 14.5q-51 0 -93.5 -16.5q-42.5 -16.5 -74 -48q-31.5 -31.5 -49 -77.5q-17.5 -46 -17.5 -104q0 -56 17 -101.5q17 -45.5 48 -77.5q31 -32 75 -49.5q44 -17.5 97 -17.5q20 0 41.5 4q21.5 4 41.5 10.5q20 6.5 36 15.5q16 9 26 18l0 110h-169zM383 904h4l179 -111l-45 -65l-136 71l-136 -71l-41 64z" />
<glyph unicode="&#285;" horiz-adv-x="499" d="M5 -61q0 57 40.5 91q40.5 34 105.5 48q-8 14 -8 31q0 19 10 32q-51 20 -79 60.5q-28 40.5 -28 90.5q0 34 13.5 64.5q13.5 30.5 38 53.5q24.5 23 60 37q35.5 14 80.5 14q34 0 63 -8.5q29 -8.5 52 -23.5l136 30l4 -92l-75 -17q11 -28 11 -58q0 -34 -13.5 -64q-13.5 -30 -38.5 -52.5q-25 -22.5 -60.5 -36q-35.5 -13.5 -78.5 -13.5h-8q-2 -5 -2 -9q0 -4 0 -8q0 -13 6 -23l5 0q49 0 92 -9q43 -9 74.5 -27q31.5 -18 49.5 -45.5q18 -27.5 18 -65.5q0 -38 -18 -65.5q-18 -27.5 -49.5 -45.5q-31.5 -18 -74.5 -27q-43 -9 -92 -9q-49 0 -92 8.5q-43 8.5 -74.5 26.5q-31.5 18 -49.5 45.5q-18 27.5 -18 66.5zt0 0zM112 -61q0 -26 34 -40.5q34 -14.5 93 -14.5q59 0 92.5 14q33.5 14 33.5 41q0 25 -31.5 40q-31.5 15 -94.5 15q-62 0 -94.5 -15q-32.5 -15 -32.5 -40zt0 0zM154 292q0 -32 22.5 -52.5q22.5 -20.5 61.5 -20.5q37 0 60.5 19.5q23.5 19.5 23.5 53.5q0 32 -21.5 54q-21.5 22 -62.5 22q-39 0 -61.5 -22.5q-22.5 -22.5 -22.5 -53.5zt0 0zM398 572l-54 -68l-101 81l-102 -79l-52 67l153 133l4 0z" />
<glyph unicode="&#286;" horiz-adv-x="727" d="M388 377h284v-290q-23 -23 -54.5 -41.5q-31.5 -18.5 -67 -31q-35.5 -12.5 -71.5 -19q-36 -6.5 -69 -6.5q-86 0 -153.5 25.5q-67.5 25.5 -114.5 73q-47 47.5 -72 114q-25 66.5 -25 148.5q0 75 24.5 141q24.5 66 70 115q45.5 49 110 77q64.5 28 144.5 28q75 0 128.5 -18.5q53.5 -18.5 96.5 -52.5l-52 -98q-26 25 -69 39.5q-43 14.5 -89 14.5q-51 0 -93.5 -16.5q-42.5 -16.5 -74 -48q-31.5 -31.5 -49 -77.5q-17.5 -46 -17.5 -104q0 -56 17 -101.5q17 -45.5 48 -77.5q31 -32 75 -49.5q44 -17.5 97 -17.5q20 0 41.5 4q21.5 4 41.5 10.5q20 6.5 36 15.5q16 9 26 18l0 110h-169zM264 900q9 -10 22 -21q13 -11 30 -20.5q17 -9.5 39.5 -15.5q22.5 -6 51.5 -6q50 0 85 20q35 20 55 43l43 -60q-12 -20 -31 -38.5q-19 -18.5 -42.5 -33q-23.5 -14.5 -51.5 -23q-28 -8.5 -58 -8.5q-35 0 -65 9.5q-30 9.5 -55 24.5q-25 15 -43.5 33.5q-18.5 18.5 -29.5 36.5z" />
<glyph unicode="&#287;" horiz-adv-x="499" d="M5 -61q0 57 40.5 91q40.5 34 105.5 48q-8 14 -8 31q0 19 10 32q-51 20 -79 60.5q-28 40.5 -28 90.5q0 34 13.5 64.5q13.5 30.5 38 53.5q24.5 23 60 37q35.5 14 80.5 14q34 0 63 -8.5q29 -8.5 52 -23.5l136 30l4 -92l-75 -17q11 -28 11 -58q0 -34 -13.5 -64q-13.5 -30 -38.5 -52.5q-25 -22.5 -60.5 -36q-35.5 -13.5 -78.5 -13.5h-8q-2 -5 -2 -9q0 -4 0 -8q0 -13 6 -23l5 0q49 0 92 -9q43 -9 74.5 -27q31.5 -18 49.5 -45.5q18 -27.5 18 -65.5q0 -38 -18 -65.5q-18 -27.5 -49.5 -45.5q-31.5 -18 -74.5 -27q-43 -9 -92 -9q-49 0 -92 8.5q-43 8.5 -74.5 26.5q-31.5 18 -49.5 45.5q-18 27.5 -18 66.5zt0 0zM112 -61q0 -26 34 -40.5q34 -14.5 93 -14.5q59 0 92.5 14q33.5 14 33.5 41q0 25 -31.5 40q-31.5 15 -94.5 15q-62 0 -94.5 -15q-32.5 -15 -32.5 -40zt0 0zM154 292q0 -32 22.5 -52.5q22.5 -20.5 61.5 -20.5q37 0 60.5 19.5q23.5 19.5 23.5 53.5q0 32 -21.5 54q-21.5 22 -62.5 22q-39 0 -61.5 -22.5q-22.5 -22.5 -22.5 -53.5zt0 0zM133 681q8 -9 18 -18.5q10 -9.5 23.5 -18q13.5 -8.5 30.5 -14q17 -5.5 38 -5.5q38 0 67 17.5q29 17.5 45 37.5l40 -56q-10 -15 -24 -31.5q-14 -16.5 -32.5 -30q-18.5 -13.5 -43.5 -22q-25 -8.5 -57 -8.5q-33 0 -58.5 10q-25.5 10 -45 24.5q-19.5 14.5 -32.5 30q-13 15.5 -20 27.5z" />
<glyph unicode="&#288;" horiz-adv-x="727" d="M388 377h284v-290q-23 -23 -54.5 -41.5q-31.5 -18.5 -67 -31q-35.5 -12.5 -71.5 -19q-36 -6.5 -69 -6.5q-86 0 -153.5 25.5q-67.5 25.5 -114.5 73q-47 47.5 -72 114q-25 66.5 -25 148.5q0 75 24.5 141q24.5 66 70 115q45.5 49 110 77q64.5 28 144.5 28q75 0 128.5 -18.5q53.5 -18.5 96.5 -52.5l-52 -98q-26 25 -69 39.5q-43 14.5 -89 14.5q-51 0 -93.5 -16.5q-42.5 -16.5 -74 -48q-31.5 -31.5 -49 -77.5q-17.5 -46 -17.5 -104q0 -56 17 -101.5q17 -45.5 48 -77.5q31 -32 75 -49.5q44 -17.5 97 -17.5q20 0 41.5 4q21.5 4 41.5 10.5q20 6.5 36 15.5q16 9 26 18l0 110h-169zM299 831q0 33 23.5 52q23.5 19 55.5 19q29 0 52 -19q23 -19 23 -52q0 -36 -23 -55.5q-23 -19.5 -52 -19.5q-32 0 -55.5 19.5t-23.5 55.5z" />
<glyph unicode="&#289;" horiz-adv-x="499" d="M5 -61q0 57 40.5 91q40.5 34 105.5 48q-8 14 -8 31q0 19 10 32q-51 20 -79 60.5q-28 40.5 -28 90.5q0 34 13.5 64.5q13.5 30.5 38 53.5q24.5 23 60 37q35.5 14 80.5 14q34 0 63 -8.5q29 -8.5 52 -23.5l136 30l4 -92l-75 -17q11 -28 11 -58q0 -34 -13.5 -64q-13.5 -30 -38.5 -52.5q-25 -22.5 -60.5 -36q-35.5 -13.5 -78.5 -13.5h-8q-2 -5 -2 -9q0 -4 0 -8q0 -13 6 -23l5 0q49 0 92 -9q43 -9 74.5 -27q31.5 -18 49.5 -45.5q18 -27.5 18 -65.5q0 -38 -18 -65.5q-18 -27.5 -49.5 -45.5q-31.5 -18 -74.5 -27q-43 -9 -92 -9q-49 0 -92 8.5q-43 8.5 -74.5 26.5q-31.5 18 -49.5 45.5q-18 27.5 -18 66.5zt0 0zM112 -61q0 -26 34 -40.5q34 -14.5 93 -14.5q59 0 92.5 14q33.5 14 33.5 41q0 25 -31.5 40q-31.5 15 -94.5 15q-62 0 -94.5 -15q-32.5 -15 -32.5 -40zt0 0zM154 292q0 -32 22.5 -52.5q22.5 -20.5 61.5 -20.5q37 0 60.5 19.5q23.5 19.5 23.5 53.5q0 32 -21.5 54q-21.5 22 -62.5 22q-39 0 -61.5 -22.5q-22.5 -22.5 -22.5 -53.5zt0 0zM169 612q0 31 21.5 49q21.5 18 50.5 18q25 0 45.5 -18q20.5 -18 20.5 -49q0 -35 -20.5 -53.5q-20.5 -18.5 -45.5 -18.5q-29 0 -50.5 18.5t-21.5 53.5z" />
<glyph unicode="&#290;" horiz-adv-x="727" d="M388 377h284v-290q-23 -23 -54.5 -41.5q-31.5 -18.5 -67 -31q-35.5 -12.5 -71.5 -19q-36 -6.5 -69 -6.5q-86 0 -153.5 25.5q-67.5 25.5 -114.5 73q-47 47.5 -72 114q-25 66.5 -25 148.5q0 75 24.5 141q24.5 66 70 115q45.5 49 110 77q64.5 28 144.5 28q75 0 128.5 -18.5q53.5 -18.5 96.5 -52.5l-52 -98q-26 25 -69 39.5q-43 14.5 -89 14.5q-51 0 -93.5 -16.5q-42.5 -16.5 -74 -48q-31.5 -31.5 -49 -77.5q-17.5 -46 -17.5 -104q0 -56 17 -101.5q17 -45.5 48 -77.5q31 -32 75 -49.5q44 -17.5 97 -17.5q20 0 41.5 4q21.5 4 41.5 10.5q20 6.5 36 15.5q16 9 26 18l0 110h-169zM451 -33q8 -5 14 -16.5q6 -11.5 6 -32.5q0 -27 -11.5 -48.5q-11.5 -21.5 -29.5 -37q-18 -15.5 -40 -25.5q-22 -10 -43 -13l-34 50q26 11 34.5 25.5q8.5 14.5 8.5 34.5q0 26 -17 38z" />
<glyph unicode="&#291;" horiz-adv-x="499" d="M5 -61q0 57 40.5 91q40.5 34 105.5 48q-8 14 -8 31q0 19 10 32q-51 20 -79 60.5q-28 40.5 -28 90.5q0 34 13.5 64.5q13.5 30.5 38 53.5q24.5 23 60 37q35.5 14 80.5 14q34 0 63 -8.5q29 -8.5 52 -23.5l136 30l4 -92l-75 -17q11 -28 11 -58q0 -34 -13.5 -64q-13.5 -30 -38.5 -52.5q-25 -22.5 -60.5 -36q-35.5 -13.5 -78.5 -13.5h-8q-2 -5 -2 -9q0 -4 0 -8q0 -13 6 -23l5 0q49 0 92 -9q43 -9 74.5 -27q31.5 -18 49.5 -45.5q18 -27.5 18 -65.5q0 -38 -18 -65.5q-18 -27.5 -49.5 -45.5q-31.5 -18 -74.5 -27q-43 -9 -92 -9q-49 0 -92 8.5q-43 8.5 -74.5 26.5q-31.5 18 -49.5 45.5q-18 27.5 -18 66.5zt0 0zM112 -61q0 -26 34 -40.5q34 -14.5 93 -14.5q59 0 92.5 14q33.5 14 33.5 41q0 25 -31.5 40q-31.5 15 -94.5 15q-62 0 -94.5 -15q-32.5 -15 -32.5 -40zt0 0zM154 292q0 -32 22.5 -52.5q22.5 -20.5 61.5 -20.5q37 0 60.5 19.5q23.5 19.5 23.5 53.5q0 32 -21.5 54q-21.5 22 -62.5 22q-39 0 -61.5 -22.5q-22.5 -22.5 -22.5 -53.5zt0 0zM191 530q-8 5 -14 16.5q-6 11.5 -6 32.5q0 27 11.5 48.5q11.5 21.5 29.5 37q18 15.5 40 25.5q22 10 43 13l34 -50q-26 -11 -34.5 -25.5q-8.5 -14.5 -8.5 -34.5q0 -26 17 -38z" />
<glyph unicode="&#292;" horiz-adv-x="760" d="M540 299h-320v-299h-123v700h123v-286h320v286h122v-700h-122zM377 904h4l179 -111l-45 -65l-136 71l-136 -71l-41 64z" />
<glyph unicode="&#293;" horiz-adv-x="546" d="M64 700h115v-291q22 21 56 35q34 14 73 14q41 0 75 -11q34 -11 58.5 -34.5q24.5 -23.5 38 -61q13.5 -37.5 13.5 -90.5v-261h-115v246q0 51 -26 77.5q-26 26.5 -74 26.5q-58 0 -99 -41l0 -309h-115zM150 904h4l179 -111l-45 -65l-136 71l-136 -71l-41 64z" />
<glyph unicode="&#294;" horiz-adv-x="770" d="M22 613h80v87h123v-87h320v87h122v-87h80v-107h-80v-506h-122v299h-320v-299h-123v506h-80zM545 414v92h-320l0 -92z" />
<glyph unicode="&#295;" horiz-adv-x="583" d="M-5 612h106v88h115v-88h148v-107h-148v-96q22 21 56 35q34 14 73 14q41 0 75 -11q34 -11 58.5 -34.5q24.5 -23.5 38 -61q13.5 -37.5 13.5 -90.5v-261h-115v246q0 51 -26 77.5q-26 26.5 -74 26.5q-58 0 -99 -41l0 -309h-115v505l-106 0z" />
<glyph unicode="&#298;" horiz-adv-x="347" d="M112 700h123v-700h-123zM23 852h309v-92l-309 0z" />
<glyph unicode="&#299;" horiz-adv-x="277" d="M81 450h115v-450h-115zM-1 642h279v-92l-279 0z" />
<glyph unicode="&#302;" horiz-adv-x="347" d="M248 -168q-13 -13 -42 -22.5q-29 -9.5 -61 -9.5q-26 0 -50 5q-24 5 -42.5 16.5q-18.5 11.5 -30 29q-11.5 17.5 -11.5 43.5q0 39 29 65.5q29 26.5 72 40.5l0 700h123v-700q-23 0 -42.5 -6q-19.5 -6 -34.5 -15.5q-15 -9.5 -23.5 -21.5q-8.5 -12 -8.5 -25q0 -23 15 -31.5q15 -8.5 30 -8.5q12 0 20.5 2q8.5 2 21.5 8z" />
<glyph unicode="&#303;" horiz-adv-x="277" d="M209 -168q-13 -13 -42 -22.5q-29 -9.5 -61 -9.5q-26 0 -50 5q-24 5 -42.5 16.5q-18.5 11.5 -30 29q-11.5 17.5 -11.5 43.5q0 42 31.5 68.5q31.5 26.5 77.5 40.5l0 447h115v-450h-5q-22 0 -41 -6q-19 -6 -33 -16q-14 -10 -22 -22q-8 -12 -8 -24q0 -23 15 -31.5q15 -8.5 30 -8.5q12 0 20.5 2q8.5 2 21.5 8zM66 612q0 31 21.5 49q21.5 18 50.5 18q25 0 45.5 -18q20.5 -18 20.5 -49q0 -35 -20.5 -53.5q-20.5 -18.5 -45.5 -18.5q-29 0 -50.5 18.5t-21.5 53.5z" />
<glyph unicode="&#304;" horiz-adv-x="347" d="M112 700h123v-700h-123zM97 831q0 33 23.5 52q23.5 19 55.5 19q29 0 52 -19q23 -19 23 -52q0 -36 -23 -55.5q-23 -19.5 -52 -19.5q-32 0 -55.5 19.5t-23.5 55.5z" />
<glyph unicode="&#305;" horiz-adv-x="277" d="M81 450h115v-450l-115 0z" />
<glyph unicode="&#308;" horiz-adv-x="390" d="M293 165q0 -85 -41.5 -130.5q-41.5 -45.5 -127.5 -45.5q-40 0 -72.5 13.5q-32.5 13.5 -46.5 29.5l40 94q12 -9 28.5 -15.5q16.5 -6.5 33.5 -6.5q34 0 48.5 22q14.5 22 14.5 60v514h123zM226 904h4l179 -111l-45 -65l-136 71l-136 -71l-41 64z" />
<glyph unicode="&#309;" horiz-adv-x="284" d="M202 -33q0 -83 -33 -129q-33 -46 -108 -46q-36 0 -66 9.5q-30 9.5 -44 22.5l31 91q12 -8 24 -12q12 -4 27 -4q30 0 42 21.5q12 21.5 12 56.5v473h115zM299 572l-54 -68l-101 81l-102 -79l-52 67l153 133l4 0z" />
<glyph unicode="&#310;" horiz-adv-x="672" d="M97 700h123v-332l276 332h148l-288 -326l306 -374h-156l-286 361v-361h-123zM381 -33q8 -5 14 -16.5q6 -11.5 6 -32.5q0 -27 -11.5 -48.5q-11.5 -21.5 -29.5 -37q-18 -15.5 -40 -25.5q-22 -10 -43 -13l-34 50q26 11 34.5 25.5q8.5 14.5 8.5 34.5q0 26 -17 38z" />
<glyph unicode="&#311;" horiz-adv-x="514" d="M318 244l189 -244h-148l-178 235l161 215h145zM64 700h115v-700h-115zM292 -33q8 -5 14 -16.5q6 -11.5 6 -32.5q0 -27 -11.5 -48.5q-11.5 -21.5 -29.5 -37q-18 -15.5 -40 -25.5q-22 -10 -43 -13l-34 50q26 11 34.5 25.5q8.5 14.5 8.5 34.5q0 26 -17 38z" />
<glyph unicode="&#313;" horiz-adv-x="547" d="M97 700h123v-585h315v-115h-438zM227 731l-32 69l214 111l43 -99z" />
<glyph unicode="&#314;" horiz-adv-x="299" d="M64 700h115v-529q0 -38 9.5 -55.5q9.5 -17.5 29.5 -17.5q14 0 25 5q11 5 22 13l24 -88q-20 -16 -49 -27q-29 -11 -70 -11q-52 0 -79 32.5q-27 32.5 -27 101.5zM103 731l-32 69l214 111l43 -99z" />
<glyph unicode="&#315;" horiz-adv-x="547" d="M97 700h123v-585h315v-115h-438zM356 -33q8 -5 14 -16.5q6 -11.5 6 -32.5q0 -27 -11.5 -48.5q-11.5 -21.5 -29.5 -37q-18 -15.5 -40 -25.5q-22 -10 -43 -13l-34 50q26 11 34.5 25.5q8.5 14.5 8.5 34.5q0 26 -17 38z" />
<glyph unicode="&#316;" horiz-adv-x="299" d="M64 700h115v-529q0 -38 9.5 -55.5q9.5 -17.5 29.5 -17.5q14 0 25 5q11 5 22 13l24 -88q-20 -16 -49 -27q-29 -11 -70 -11q-52 0 -79 32.5q-27 32.5 -27 101.5zM222 -33q8 -5 14 -16.5q6 -11.5 6 -32.5q0 -27 -11.5 -48.5q-11.5 -21.5 -29.5 -37q-18 -15.5 -40 -25.5q-22 -10 -43 -13l-34 50q26 11 34.5 25.5q8.5 14.5 8.5 34.5q0 26 -17 38z" />
<glyph unicode="&#317;" horiz-adv-x="547" d="M97 700h123v-585h315v-115h-438zM468 700q4 -8 5 -17.5q1 -9.5 1 -17.5q0 -35 -9 -63q-9 -28 -23 -49.5q-14 -21.5 -31.5 -36.5q-17.5 -15 -35.5 -25l-53 50q21 20 33 49q12 29 12 61q0 16 -3 27q-3 11 -8 22z" />
<glyph unicode="&#318;" horiz-adv-x="299" d="M64 700h115v-529q0 -38 9.5 -55.5q9.5 -17.5 29.5 -17.5q14 0 25 5q11 5 22 13l24 -88q-20 -16 -49 -27q-29 -11 -70 -11q-52 0 -79 32.5q-27 32.5 -27 101.5zM368 700q4 -8 5 -17.5q1 -9.5 1 -17.5q0 -35 -9 -63q-9 -28 -23 -49.5q-14 -21.5 -31.5 -36.5q-17.5 -15 -35.5 -25l-53 50q21 20 33 49q12 29 12 61q0 16 -3 27q-3 11 -8 22z" />
<glyph unicode="&#319;" horiz-adv-x="547" d="M97 700h123v-585h315v-115h-438zM356 375q0 13 5.5 26.5q5.5 13.5 16 24q10.5 10.5 25 17q14.5 6.5 33.5 6.5q16 0 29.5 -6.5q13.5 -6.5 23 -17q9.5 -10.5 15 -24q5.5 -13.5 5.5 -26.5q0 -15 -5.5 -29.5q-5.5 -14.5 -15 -26q-9.5 -11.5 -23 -18q-13.5 -6.5 -29.5 -6.5q-38 0 -59 24.5t-21 55.5z" />
<glyph unicode="&#320;" horiz-adv-x="350" d="M64 700h115v-529q0 -38 9.5 -55.5q9.5 -17.5 29.5 -17.5q14 0 25 5q11 5 22 13l24 -88q-20 -16 -49 -27q-29 -11 -70 -11q-52 0 -79 32.5q-27 32.5 -27 101.5zM228 338q0 31 21.5 49q21.5 18 50.5 18q25 0 45.5 -18q20.5 -18 20.5 -49q0 -35 -20.5 -53.5q-20.5 -18.5 -45.5 -18.5q-29 0 -50.5 18.5t-21.5 53.5z" />
<glyph unicode="&#321;" horiz-adv-x="557" d="M22 322l85 39v339h123v-282l163 75v-117l-163 -76v-185h315v-115h-438v243l-85 -39z" />
</font>
</defs>
</svg>
